<svg xmlns="http://www.w3.org/2000/svg" width="375" viewBox="0 0 375 375" height="375" version="1.0"><path fill="#F03838" d="M 181.597656 32.242188 C 194.386719 50.113281 196.230469 68.703125 195.046875 83.621094 C 193.859375 98.542969 174.777344 116.921875 171.710938 115.042969 C 168.644531 113.164062 181.597656 98.148438 164.59375 83.621094 C 147.585938 69.097656 114.757812 79.769531 105.464844 80.660156 C 96.1875 81.546875 79.765625 83.101562 76.144531 69.210938 C 74.855469 63.386719 74.539062 56.453125 75.890625 48.25 C 81.339844 15.164062 113.703125 5.722656 145.953125 10.492188 C 147.046875 10.6875 169.132812 14.816406 181.597656 32.242188"/><path fill="#C72025" d="M 199.296875 76.707031 C 198.851562 94.640625 185.058594 113.316406 174.378906 118.652344 C 163.703125 123.988281 161.035156 124.433594 159.699219 123.394531 C 158.363281 122.355469 172.453125 117.851562 168.894531 98.761719 C 165.332031 79.671875 144.421875 85.300781 140.121094 92.863281 C 135.820312 100.421875 134.492188 111.832031 134.492188 111.832031 L 96.074219 95.875 C 96.074219 95.875 80.507812 88.949219 76.144531 69.210938 C 79.765625 83.101562 96.1875 81.546875 105.464844 80.660156 C 114.757812 79.769531 147.585938 69.097656 164.59375 83.625 C 181.601562 98.148438 168.644531 113.167969 171.710938 115.042969 C 174.777344 116.921875 193.859375 98.542969 195.046875 83.625 C 196.230469 68.703125 194.386719 50.113281 181.601562 32.242188 C 169.132812 14.816406 147.050781 10.6875 145.957031 10.492188 C 148.8125 10.914062 151.667969 11.445312 154.507812 12.085938 C 189.359375 19.941406 199.742188 58.773438 199.296875 76.707031"/><path fill="#453B36" d="M 95.378906 97.949219 C 95.378906 97.949219 96.566406 85.996094 113.574219 83.328125 C 130.578125 80.660156 134.238281 94.542969 134.238281 107.953125 C 134.238281 121.367188 134.238281 184.40625 134.238281 184.40625 C 134.238281 184.40625 134.238281 201.894531 144.621094 206.246094 C 155 210.59375 164.988281 208.320312 167.261719 205.554688 C 169.535156 202.785156 156.484375 175.46875 184.960938 145.949219 C 213.4375 116.425781 261.292969 119.984375 289.371094 154.964844 C 317.453125 189.941406 308.949219 230.652344 291.152344 248.039062 C 273.355469 265.429688 245.472656 264.839844 243.691406 261.28125 C 241.910156 257.722656 261.886719 248.832031 254.171875 224.722656 C 246.460938 200.609375 212.25 199.425781 204.933594 223.339844 C 197.617188 247.25 222.335938 272.546875 221.941406 277.882812 C 221.542969 283.21875 206.515625 290.726562 192.472656 294.480469 C 178.433594 298.234375 169.933594 302.1875 139.871094 300.410156 C 109.816406 298.628906 92.214844 278.472656 92.214844 278.472656 C 92.214844 278.472656 57.214844 258.710938 71.253906 225.316406 C 85.296875 191.917969 92.414062 192.90625 94.191406 164.25 C 95.972656 135.597656 95.378906 97.949219 95.378906 97.949219"/><path fill="#F03838" d="M 96.886719 122.0625 C 101.265625 131.101562 96.070312 143.996094 83.242188 142.882812 C 73.957031 142.078125 71.878906 134.554688 71.441406 130.460938 C 71.628906 128.839844 72.109375 127.144531 72.933594 125.394531 C 75.242188 120.492188 79.734375 117.125 83.695312 114.972656 C 83.695312 114.972656 92.511719 113.019531 96.886719 122.0625"/><path fill="#C72025" d="M 94.960938 112.277344 C 94.960938 112.277344 101.636719 117.984375 102.300781 128.730469 C 102.96875 139.472656 95.480469 147.699219 84.914062 145.625 C 76.210938 143.914062 70.554688 138.03125 71.441406 130.460938 C 71.878906 134.554688 73.953125 142.078125 83.242188 142.882812 C 96.070312 143.992188 101.265625 131.101562 96.890625 122.058594 C 92.515625 113.019531 83.695312 114.972656 83.695312 114.972656 C 87.753906 112.765625 91.253906 111.832031 91.253906 111.832031 L 94.960938 112.277344"/><path fill="#F14651" d="M 83.910156 115.980469 C 83.910156 115.980469 77.457031 119.167969 75.085938 124.210938 C 72.710938 129.246094 73.304688 136.285156 79.5 139.027344 C 85.691406 141.773438 97.402344 136.285156 95.367188 125.691406 C 93.328125 115.09375 83.910156 115.980469 83.910156 115.980469"/><path fill="#F4707C" d="M 80.632812 132.203125 C 81.570312 132.203125 82.621094 131.996094 83.761719 131.546875 C 89.769531 129.175781 92.144531 121.097656 89.101562 118.949219 C 87.371094 117.726562 85.882812 117.460938 84.921875 117.460938 C 84.191406 117.460938 83.761719 117.613281 83.761719 117.613281 C 83.761719 117.613281 79.015625 117.984375 76.644531 123.765625 C 74.722656 128.445312 76.644531 132.203125 80.632812 132.203125"/><path fill="#FFF" d="M 104.378906 105.0625 C 104.378906 110.136719 108.492188 114.253906 113.570312 114.253906 C 118.652344 114.253906 122.769531 110.136719 122.769531 105.0625 C 122.769531 99.988281 118.652344 95.875 113.570312 95.875 C 108.492188 95.875 104.378906 99.988281 104.378906 105.0625"/><path fill="#3E342F" d="M 119.207031 105.0625 C 119.207031 101.953125 116.6875 99.433594 113.570312 99.433594 C 110.457031 99.433594 107.9375 101.953125 107.9375 105.0625 C 107.9375 108.175781 110.457031 110.695312 113.570312 110.695312 C 116.6875 110.695312 119.207031 108.175781 119.207031 105.0625"/><path fill="#FADE35" d="M 96.070312 102.644531 C 96.171875 106.597656 91.328125 110.351562 81.984375 110.054688 C 72.640625 109.757812 73.273438 107.214844 74.09375 106.726562 C 78.195312 104.144531 88.425781 100.398438 93.046875 98.765625 C 93.046875 98.765625 95.972656 98.691406 96.070312 102.644531"/><path fill="#F1BA24" d="M 97.457031 102.003906 C 97.753906 105.363281 95.972656 112.574219 94.6875 113.367188 C 93.402344 114.15625 72.046875 111.191406 72.339844 108.421875 C 72.390625 107.972656 73.042969 107.386719 74.09375 106.726562 C 73.273438 107.214844 72.636719 109.757812 81.980469 110.054688 C 91.328125 110.351562 96.171875 106.597656 96.074219 102.644531 C 95.972656 98.691406 93.046875 98.761719 93.046875 98.761719 C 94.480469 98.257812 95.378906 97.949219 95.378906 97.949219 C 95.378906 97.949219 97.160156 98.640625 97.457031 102.003906"/><path fill="#FAE761" d="M 74.9375 107.953125 C 78.136719 107.953125 94.246094 103.527344 95.160156 101.703125 C 96.148438 99.726562 93.304688 99.429688 93.304688 99.429688 C 93.304688 99.429688 80.226562 104.222656 78.203125 105.089844 C 76.175781 105.953125 73.527344 106.992188 74.417969 107.855469 C 74.488281 107.921875 74.664062 107.953125 74.9375 107.953125"/><path fill="#F14651" d="M 180.019531 35.058594 C 180.019531 35.058594 166.371094 16.238281 139.082031 12.679688 C 111.792969 9.121094 96.117188 20.363281 86.847656 30.761719 C 77.574219 41.15625 78.71875 63.070312 85.691406 71.371094 C 92.660156 79.671875 114.316406 78.632812 133.894531 64.109375 C 153.46875 49.582031 155.695312 41.503906 166.371094 41.691406 C 177.050781 41.875 180.855469 48.46875 183.949219 44.765625 C 187.039062 41.066406 180.019531 35.058594 180.019531 35.058594"/><path fill="#F4707C" d="M 90.722656 55.320312 C 94.988281 55.320312 100.902344 52.574219 106.453125 46.027344 C 116.40625 34.28125 130.570312 23.871094 144.457031 23.871094 C 145.46875 23.871094 146.480469 23.925781 147.488281 24.039062 C 158.320312 25.269531 162.796875 26.96875 164.460938 26.96875 C 165.074219 26.96875 165.308594 26.738281 165.335938 26.164062 C 165.433594 24.039062 160.882812 22.460938 160.882812 22.460938 C 160.882812 22.460938 145.71875 15.75 126.402344 15.75 C 123.539062 15.75 120.585938 15.894531 117.578125 16.234375 C 94.261719 18.859375 85.636719 41.132812 84.699219 49.136719 C 84.246094 52.980469 86.785156 55.320312 90.722656 55.320312"/><path fill="#453B36" d="M 149.5625 293.691406 L 149.5625 368.390625 C 149.5625 368.390625 159.253906 369.476562 162.417969 367.203125 C 165.582031 364.929688 163.503906 363.152344 166.078125 360.484375 C 168.644531 357.816406 173.789062 354.65625 173.886719 346.453125 C 173.984375 338.253906 167.261719 339.144531 167.757812 325.804688 C 168.25 312.464844 169.535156 297.148438 169.535156 297.148438 L 149.5625 293.691406"/><path fill="#453B36" d="M 149.5625 293.691406 L 149.5625 368.390625 C 149.5625 368.390625 139.871094 369.476562 136.710938 367.203125 C 133.546875 364.929688 135.621094 363.152344 133.050781 360.484375 C 130.480469 357.816406 125.339844 354.65625 125.238281 346.453125 C 125.140625 338.253906 131.863281 339.144531 131.371094 325.804688 C 130.875 312.464844 129.589844 297.148438 129.589844 297.148438 L 149.5625 293.691406"/><path fill="#27211E" d="M 169.316406 299.9375 C 169.316406 299.9375 161.921875 301.59375 149.5625 301.398438 C 137.203125 301.199219 129.746094 299.070312 129.746094 299.070312 L 130.320312 306.84375 C 130.320312 306.84375 140.121094 304.808594 149.167969 310.882812 C 158.214844 316.960938 157.722656 323.875 158.511719 332.425781 C 159.304688 340.96875 164.988281 344.378906 164.59375 350.160156 C 164.195312 355.941406 156.929688 358.65625 155.644531 360.832031 C 154.359375 363.003906 150.949219 367.203125 150.503906 367.203125 C 150.058594 367.203125 148.277344 367.203125 148.277344 367.203125 C 148.277344 367.203125 151.695312 368.492188 156.1875 368.242188 C 160.683594 367.992188 163.257812 366.265625 163.703125 364.785156 C 164.148438 363.300781 163.652344 362.3125 164.644531 360.980469 C 165.632812 359.644531 172.453125 355 172.996094 347.789062 C 173.539062 340.574219 167.988281 336.386719 167.195312 331.691406 C 166.40625 326.996094 169.316406 299.9375 169.316406 299.9375"/><path fill="#322A27" d="M 168.640625 296.992188 C 193.523438 293.1875 218.359375 283.503906 219.296875 278.96875 C 220.230469 274.453125 218.300781 272.746094 217.171875 272.148438 L 187.25 287.910156 C 187.25 287.910156 169.753906 292.925781 153.050781 294.292969 L 168.640625 296.992188 M 132.050781 296.722656 L 144.160156 294.628906 C 140.804688 294.578125 137.640625 294.292969 134.832031 293.691406 C 121.613281 290.863281 105.480469 284.285156 97.378906 280.777344 C 95.519531 280.027344 94.515625 279.5625 94.515625 279.5625 C 94.515625 279.5625 108.425781 291.851562 132.050781 296.722656"/><path fill="#322A27" d="M 149.609375 298.578125 C 155.675781 298.578125 162.15625 297.984375 168.640625 296.992188 L 153.046875 294.292969 C 151.878906 294.390625 150.71875 294.46875 149.5625 294.523438 L 149.5625 298.578125 C 149.578125 298.578125 149.59375 298.578125 149.609375 298.578125"/><path fill="#322A27" d="M 149.5625 298.578125 L 149.5625 294.523438 C 148.113281 294.597656 146.675781 294.636719 145.265625 294.636719 C 144.894531 294.636719 144.527344 294.632812 144.160156 294.628906 L 132.050781 296.722656 C 135.222656 297.378906 138.566406 297.898438 142.074219 298.234375 C 144.472656 298.46875 146.984375 298.578125 149.5625 298.578125"/><path fill="#8AD0B8" d="M 127.277344 208.789062 C 127.277344 211.886719 129.789062 214.398438 132.886719 214.398438 C 135.984375 214.398438 138.496094 211.886719 138.496094 208.789062 C 138.496094 205.691406 135.984375 203.179688 132.886719 203.179688 C 129.789062 203.179688 127.277344 205.691406 127.277344 208.789062"/><path fill="#8AD0B8" d="M 113.925781 204.0625 C 113.925781 207.160156 116.441406 209.671875 119.539062 209.671875 C 122.636719 209.671875 125.148438 207.160156 125.148438 204.0625 C 125.148438 200.964844 122.636719 198.453125 119.539062 198.453125 C 116.441406 198.453125 113.925781 200.964844 113.925781 204.0625"/><path fill="#8AD0B8" d="M 100.875 198.453125 C 100.875 201.550781 103.390625 204.0625 106.488281 204.0625 C 109.585938 204.0625 112.097656 201.550781 112.097656 198.453125 C 112.097656 195.355469 109.585938 192.847656 106.488281 192.847656 C 103.390625 192.847656 100.875 195.355469 100.875 198.453125"/><path fill="#8AD0B8" d="M 91.53125 188.078125 C 91.53125 191.175781 94.042969 193.6875 97.144531 193.6875 C 100.242188 193.6875 102.753906 191.175781 102.753906 188.078125 C 102.753906 184.980469 100.242188 182.472656 97.144531 182.472656 C 94.042969 182.472656 91.53125 184.980469 91.53125 188.078125"/><path fill="#8AD0B8" d="M 88.070312 201.023438 C 88.070312 204.121094 90.585938 206.632812 93.683594 206.632812 C 96.78125 206.632812 99.292969 204.121094 99.292969 201.023438 C 99.292969 197.925781 96.78125 195.417969 93.683594 195.417969 C 90.585938 195.417969 88.070312 197.925781 88.070312 201.023438"/><path fill="#8AD0B8" d="M 103.296875 211.296875 C 103.296875 214.398438 105.8125 216.90625 108.910156 216.90625 C 112.007812 216.90625 114.519531 214.398438 114.519531 211.296875 C 114.519531 208.203125 112.007812 205.691406 108.910156 205.691406 C 105.8125 205.691406 103.296875 208.203125 103.296875 211.296875"/><path fill="#8AD0B8" d="M 117.242188 216.90625 C 117.242188 220.003906 119.753906 222.515625 122.851562 222.515625 C 125.949219 222.515625 128.460938 220.003906 128.460938 216.90625 C 128.460938 213.808594 125.949219 211.296875 122.851562 211.296875 C 119.753906 211.296875 117.242188 213.808594 117.242188 216.90625"/><path fill="#8AD0B8" d="M 90.246094 213.25 C 90.246094 216.347656 92.757812 218.859375 95.859375 218.859375 C 98.957031 218.859375 101.46875 216.347656 101.46875 213.25 C 101.46875 210.15625 98.957031 207.644531 95.859375 207.644531 C 92.757812 207.644531 90.246094 210.15625 90.246094 213.25"/><path fill="#8AD0B8" d="M 106.488281 224.464844 C 106.488281 227.5625 109 230.074219 112.097656 230.074219 C 115.199219 230.074219 117.710938 227.5625 117.710938 224.464844 C 117.710938 221.371094 115.199219 218.859375 112.097656 218.859375 C 109 218.859375 106.488281 221.371094 106.488281 224.464844"/><path fill="#8AD0B8" d="M 77.519531 215.96875 C 77.519531 219.066406 80.027344 221.574219 83.128906 221.574219 C 86.226562 221.574219 88.738281 219.066406 88.738281 215.96875 C 88.738281 212.871094 86.226562 210.359375 83.128906 210.359375 C 80.027344 210.359375 77.519531 212.871094 77.519531 215.96875"/><path fill="#8AD0B8" d="M 90.246094 225.847656 C 90.246094 228.945312 92.757812 231.457031 95.859375 231.457031 C 98.957031 231.457031 101.46875 228.945312 101.46875 225.847656 C 101.46875 222.75 98.957031 220.242188 95.859375 220.242188 C 92.757812 220.242188 90.246094 222.75 90.246094 225.847656"/><path fill="#8AD0B8" d="M 77.519531 228.714844 C 77.519531 231.8125 80.027344 234.320312 83.128906 234.320312 C 86.226562 234.320312 88.738281 231.8125 88.738281 228.714844 C 88.738281 225.617188 86.226562 223.105469 83.128906 223.105469 C 80.027344 223.105469 77.519531 225.617188 77.519531 228.714844"/><path fill="#8AD0B8" d="M 69.410156 239.285156 C 69.410156 242.382812 71.921875 244.894531 75.019531 244.894531 C 78.117188 244.894531 80.632812 242.382812 80.632812 239.285156 C 80.632812 236.1875 78.117188 233.679688 75.019531 233.679688 C 71.921875 233.679688 69.410156 236.1875 69.410156 239.285156"/><path fill="#8AD0B8" d="M 82.460938 240.375 C 82.460938 243.46875 84.972656 245.980469 88.070312 245.980469 C 91.167969 245.980469 93.683594 243.46875 93.683594 240.375 C 93.683594 237.277344 91.167969 234.765625 88.070312 234.765625 C 84.972656 234.765625 82.460938 237.277344 82.460938 240.375"/><path fill="#8AD0B8" d="M 74.152344 251.589844 C 74.152344 254.683594 76.667969 257.195312 79.765625 257.195312 C 82.863281 257.195312 85.375 254.683594 85.375 251.589844 C 85.375 248.492188 82.863281 245.980469 79.765625 245.980469 C 76.667969 245.980469 74.152344 248.492188 74.152344 251.589844"/><path fill="#8AD0B8" d="M 87.421875 253.375 C 87.421875 256.472656 89.9375 258.984375 93.03125 258.984375 C 96.132812 258.984375 98.644531 256.472656 98.644531 253.375 C 98.644531 250.28125 96.132812 247.769531 93.03125 247.769531 C 89.9375 247.769531 87.421875 250.28125 87.421875 253.375"/><path fill="#8AD0B8" d="M 79.769531 263.457031 C 79.769531 266.554688 82.277344 269.0625 85.378906 269.0625 C 88.476562 269.0625 90.988281 266.554688 90.988281 263.457031 C 90.988281 260.359375 88.476562 257.847656 85.378906 257.847656 C 82.277344 257.847656 79.769531 260.359375 79.769531 263.457031"/><path fill="#8AD0B8" d="M 90.246094 272.78125 C 90.246094 275.878906 92.757812 278.390625 95.859375 278.390625 C 98.957031 278.390625 101.46875 275.878906 101.46875 272.78125 C 101.46875 269.6875 98.957031 267.175781 95.859375 267.175781 C 92.757812 267.175781 90.246094 269.6875 90.246094 272.78125"/><path fill="#8AD0B8" d="M 103.695312 277.460938 C 103.695312 280.558594 106.207031 283.070312 109.304688 283.070312 C 112.40625 283.070312 114.917969 280.558594 114.917969 277.460938 C 114.917969 274.363281 112.40625 271.851562 109.304688 271.851562 C 106.207031 271.851562 103.695312 274.363281 103.695312 277.460938"/><path fill="#8AD0B8" d="M 117.710938 281.710938 C 117.710938 284.808594 120.222656 287.316406 123.324219 287.316406 C 126.421875 287.316406 128.933594 284.808594 128.933594 281.710938 C 128.933594 278.613281 126.421875 276.101562 123.324219 276.101562 C 120.222656 276.101562 117.710938 278.613281 117.710938 281.710938"/><path fill="#8AD0B8" d="M 132.886719 284 C 132.886719 287.09375 135.398438 289.605469 138.496094 289.605469 C 141.597656 289.605469 144.109375 287.09375 144.109375 284 C 144.109375 280.902344 141.597656 278.390625 138.496094 278.390625 C 135.398438 278.390625 132.886719 280.902344 132.886719 284"/><path fill="#8AD0B8" d="M 149.804688 285.214844 C 149.804688 288.3125 152.316406 290.824219 155.414062 290.824219 C 158.515625 290.824219 161.027344 288.3125 161.027344 285.214844 C 161.027344 282.117188 158.515625 279.609375 155.414062 279.609375 C 152.316406 279.609375 149.804688 282.117188 149.804688 285.214844"/><path fill="#8AD0B8" d="M 164.238281 283.140625 C 164.238281 286.238281 166.75 288.746094 169.847656 288.746094 C 172.949219 288.746094 175.460938 286.238281 175.460938 283.140625 C 175.460938 280.042969 172.949219 277.535156 169.847656 277.535156 C 166.75 277.535156 164.238281 280.042969 164.238281 283.140625"/><path fill="#8AD0B8" d="M 177.980469 279.191406 C 177.980469 282.285156 180.492188 284.796875 183.59375 284.796875 C 186.691406 284.796875 189.203125 282.285156 189.203125 279.191406 C 189.203125 276.09375 186.691406 273.582031 183.59375 273.582031 C 180.492188 273.582031 177.980469 276.09375 177.980469 279.191406"/><path fill="#8AD0B8" d="M 192.21875 274 C 192.21875 277.097656 194.730469 279.605469 197.832031 279.605469 C 200.929688 279.605469 203.441406 277.097656 203.441406 274 C 203.441406 270.902344 200.929688 268.394531 197.832031 268.394531 C 194.730469 268.394531 192.21875 270.902344 192.21875 274"/><path fill="#8AD0B8" d="M 203.441406 268.394531 C 203.441406 271.488281 205.953125 274 209.050781 274 C 212.152344 274 214.664062 271.488281 214.664062 268.394531 C 214.664062 265.296875 212.152344 262.789062 209.050781 262.789062 C 205.953125 262.789062 203.441406 265.296875 203.441406 268.394531"/><path fill="#8AD0B8" d="M 192.859375 260.980469 C 192.859375 264.082031 195.371094 266.589844 198.472656 266.589844 C 201.570312 266.589844 204.082031 264.082031 204.082031 260.980469 C 204.082031 257.886719 201.570312 255.375 198.472656 255.375 C 195.371094 255.375 192.859375 257.886719 192.859375 260.980469"/><path fill="#8AD0B8" d="M 180.996094 266.589844 C 180.996094 269.6875 183.507812 272.199219 186.609375 272.199219 C 189.707031 272.199219 192.21875 269.6875 192.21875 266.589844 C 192.21875 263.492188 189.707031 260.984375 186.609375 260.984375 C 183.507812 260.984375 180.996094 263.492188 180.996094 266.589844"/><path fill="#8AD0B8" d="M 168.277344 270.542969 C 168.277344 273.640625 170.789062 276.148438 173.886719 276.148438 C 176.984375 276.148438 179.5 273.640625 179.5 270.542969 C 179.5 267.445312 176.984375 264.933594 173.886719 264.933594 C 170.789062 264.933594 168.277344 267.445312 168.277344 270.542969"/><path fill="#8AD0B8" d="M 169.851562 258.292969 C 169.851562 261.386719 172.363281 263.898438 175.460938 263.898438 C 178.5625 263.898438 181.074219 261.386719 181.074219 258.292969 C 181.074219 255.195312 178.5625 252.683594 175.460938 252.683594 C 172.363281 252.683594 169.851562 255.195312 169.851562 258.292969"/><path fill="#8AD0B8" d="M 181.640625 253.933594 C 181.640625 257.03125 184.152344 259.539062 187.25 259.539062 C 190.351562 259.539062 192.863281 257.03125 192.863281 253.933594 C 192.863281 250.835938 190.351562 248.324219 187.25 248.324219 C 184.152344 248.324219 181.640625 250.835938 181.640625 253.933594"/><path fill="#8AD0B8" d="M 193.503906 247.742188 C 193.503906 250.839844 196.019531 253.351562 199.117188 253.351562 C 202.214844 253.351562 204.726562 250.839844 204.726562 247.742188 C 204.726562 244.648438 202.214844 242.136719 199.117188 242.136719 C 196.019531 242.136719 193.503906 244.648438 193.503906 247.742188"/><path fill="#8AD0B8" d="M 182.132812 241.417969 C 182.132812 244.515625 184.644531 247.027344 187.746094 247.027344 C 190.84375 247.027344 193.355469 244.515625 193.355469 241.417969 C 193.355469 238.320312 190.84375 235.8125 187.746094 235.8125 C 184.644531 235.8125 182.132812 238.320312 182.132812 241.417969"/><path fill="#8AD0B8" d="M 191.425781 231.242188 C 191.425781 234.339844 193.9375 236.847656 197.039062 236.847656 C 200.140625 236.847656 202.648438 234.339844 202.648438 231.242188 C 202.648438 228.144531 200.140625 225.632812 197.039062 225.632812 C 193.9375 225.632812 191.425781 228.144531 191.425781 231.242188"/><path fill="#8AD0B8" d="M 179.167969 229.476562 C 179.167969 232.574219 181.679688 235.082031 184.78125 235.082031 C 187.878906 235.082031 190.390625 232.574219 190.390625 229.476562 C 190.390625 226.378906 187.878906 223.867188 184.78125 223.867188 C 181.679688 223.867188 179.167969 226.378906 179.167969 229.476562"/><path fill="#8AD0B8" d="M 159.195312 233.160156 C 159.195312 236.257812 161.707031 238.765625 164.808594 238.765625 C 167.90625 238.765625 170.417969 236.257812 170.417969 233.160156 C 170.417969 230.0625 167.90625 227.550781 164.808594 227.550781 C 161.707031 227.550781 159.195312 230.0625 159.195312 233.160156"/><path fill="#8AD0B8" d="M 151.664062 222.742188 C 151.664062 225.839844 154.179688 228.351562 157.277344 228.351562 C 160.375 228.351562 162.890625 225.839844 162.890625 222.742188 C 162.890625 219.648438 160.375 217.136719 157.277344 217.136719 C 154.179688 217.136719 151.664062 219.648438 151.664062 222.742188"/><path fill="#8AD0B8" d="M 167.945312 223.867188 C 167.945312 226.964844 170.457031 229.476562 173.554688 229.476562 C 176.65625 229.476562 179.167969 226.964844 179.167969 223.867188 C 179.167969 220.769531 176.65625 218.257812 173.554688 218.257812 C 170.457031 218.257812 167.945312 220.769531 167.945312 223.867188"/><path fill="#8AD0B8" d="M 172.367188 211.527344 C 172.367188 214.625 174.882812 217.136719 177.980469 217.136719 C 181.078125 217.136719 183.589844 214.625 183.589844 211.527344 C 183.589844 208.433594 181.078125 205.921875 177.980469 205.921875 C 174.882812 205.921875 172.367188 208.433594 172.367188 211.527344"/><path fill="#8AD0B8" d="M 186.410156 219.523438 C 186.410156 222.621094 188.921875 225.132812 192.019531 225.132812 C 195.121094 225.132812 197.632812 222.621094 197.632812 219.523438 C 197.632812 216.425781 195.121094 213.917969 192.019531 213.917969 C 188.921875 213.917969 186.410156 216.425781 186.410156 219.523438"/><path fill="#8AD0B8" d="M 183.589844 205.296875 C 183.589844 208.390625 186.105469 210.902344 189.203125 210.902344 C 192.300781 210.902344 194.816406 208.390625 194.816406 205.296875 C 194.816406 202.199219 192.300781 199.6875 189.203125 199.6875 C 186.105469 199.6875 183.589844 202.199219 183.589844 205.296875"/><path fill="#8AD0B8" d="M 169.503906 198.453125 C 169.503906 201.550781 172.015625 204.058594 175.113281 204.058594 C 178.210938 204.058594 180.722656 201.550781 180.722656 198.453125 C 180.722656 195.355469 178.210938 192.847656 175.113281 192.847656 C 172.015625 192.847656 169.503906 195.355469 169.503906 198.453125"/><path fill="#8AD0B8" d="M 167.945312 185.113281 C 167.945312 188.210938 170.457031 190.722656 173.554688 190.722656 C 176.65625 190.722656 179.167969 188.210938 179.167969 185.113281 C 179.167969 182.019531 176.65625 179.507812 173.554688 179.507812 C 170.457031 179.507812 167.945312 182.019531 167.945312 185.113281"/><path fill="#8AD0B8" d="M 180.796875 191.921875 C 180.796875 195.019531 183.3125 197.53125 186.410156 197.53125 C 189.507812 197.53125 192.019531 195.019531 192.019531 191.921875 C 192.019531 188.824219 189.507812 186.316406 186.410156 186.316406 C 183.3125 186.316406 180.796875 188.824219 180.796875 191.921875"/><path fill="#8AD0B8" d="M 193.949219 197.527344 C 193.949219 200.625 196.460938 203.136719 199.558594 203.136719 C 202.660156 203.136719 205.171875 200.625 205.171875 197.527344 C 205.171875 194.433594 202.660156 191.921875 199.558594 191.921875 C 196.460938 191.921875 193.949219 194.433594 193.949219 197.527344"/><path fill="#8AD0B8" d="M 206.011719 203.136719 C 206.011719 206.234375 208.523438 208.746094 211.625 208.746094 C 214.722656 208.746094 217.234375 206.234375 217.234375 203.136719 C 217.234375 200.039062 214.722656 197.53125 211.625 197.53125 C 208.523438 197.53125 206.011719 200.039062 206.011719 203.136719"/><path fill="#8AD0B8" d="M 205.171875 189.796875 C 205.171875 192.894531 207.683594 195.40625 210.78125 195.40625 C 213.882812 195.40625 216.394531 192.894531 216.394531 189.796875 C 216.394531 186.703125 213.882812 184.191406 210.78125 184.191406 C 207.683594 184.191406 205.171875 186.703125 205.171875 189.796875"/><path fill="#8AD0B8" d="M 217.730469 198.988281 C 217.730469 202.082031 220.242188 204.59375 223.339844 204.59375 C 226.4375 204.59375 228.953125 202.082031 228.953125 198.988281 C 228.953125 195.890625 226.4375 193.378906 223.339844 193.378906 C 220.242188 193.378906 217.730469 195.890625 217.730469 198.988281"/><path fill="#8AD0B8" d="M 251.347656 255.375 C 251.347656 258.472656 253.859375 260.984375 256.957031 260.984375 C 260.054688 260.984375 262.570312 258.472656 262.570312 255.375 C 262.570312 252.277344 260.054688 249.769531 256.957031 249.769531 C 253.859375 249.769531 251.347656 252.277344 251.347656 255.375"/><path fill="#8AD0B8" d="M 263.953125 252.410156 C 263.953125 255.507812 266.464844 258.019531 269.5625 258.019531 C 272.664062 258.019531 275.175781 255.507812 275.175781 252.410156 C 275.175781 249.316406 272.664062 246.804688 269.5625 246.804688 C 266.464844 246.804688 263.953125 249.316406 263.953125 252.410156"/><path fill="#8AD0B8" d="M 256.390625 242.703125 C 256.390625 245.800781 258.902344 248.308594 262 248.308594 C 265.097656 248.308594 267.613281 245.800781 267.613281 242.703125 C 267.613281 239.605469 265.097656 237.09375 262 237.09375 C 258.902344 237.09375 256.390625 239.605469 256.390625 242.703125"/><path fill="#8AD0B8" d="M 275.964844 246.804688 C 275.964844 249.902344 278.480469 252.410156 281.578125 252.410156 C 284.675781 252.410156 287.1875 249.902344 287.1875 246.804688 C 287.1875 243.707031 284.675781 241.195312 281.578125 241.195312 C 278.480469 241.195312 275.964844 243.707031 275.964844 246.804688"/><path fill="#8AD0B8" d="M 267.609375 237.539062 C 267.609375 240.636719 270.121094 243.148438 273.222656 243.148438 C 276.320312 243.148438 278.835938 240.636719 278.835938 237.539062 C 278.835938 234.445312 276.320312 231.933594 273.222656 231.933594 C 270.121094 231.933594 267.609375 234.445312 267.609375 237.539062"/><path fill="#8AD0B8" d="M 256.957031 229.6875 C 256.957031 232.785156 259.46875 235.292969 262.570312 235.292969 C 265.667969 235.292969 268.179688 232.785156 268.179688 229.6875 C 268.179688 226.589844 265.667969 224.078125 262.570312 224.078125 C 259.46875 224.078125 256.957031 226.589844 256.957031 229.6875"/><path fill="#8AD0B8" d="M 284.46875 237.09375 C 284.46875 240.191406 286.980469 242.703125 290.078125 242.703125 C 293.179688 242.703125 295.691406 240.191406 295.691406 237.09375 C 295.691406 234 293.179688 231.488281 290.078125 231.488281 C 286.980469 231.488281 284.46875 234 284.46875 237.09375"/><path fill="#8AD0B8" d="M 275.175781 227.019531 C 275.175781 230.113281 277.6875 232.625 280.789062 232.625 C 283.886719 232.625 286.398438 230.113281 286.398438 227.019531 C 286.398438 223.921875 283.886719 221.410156 280.789062 221.410156 C 277.6875 221.410156 275.175781 223.921875 275.175781 227.019531"/><path fill="#8AD0B8" d="M 264.742188 219.828125 C 264.742188 222.925781 267.257812 225.4375 270.355469 225.4375 C 273.453125 225.4375 275.964844 222.925781 275.964844 219.828125 C 275.964844 216.734375 273.453125 214.222656 270.355469 214.222656 C 267.257812 214.222656 264.742188 216.734375 264.742188 219.828125"/><path fill="#8AD0B8" d="M 252.730469 216.792969 C 252.730469 219.886719 255.242188 222.398438 258.34375 222.398438 C 261.441406 222.398438 263.953125 219.886719 263.953125 216.792969 C 263.953125 213.695312 261.441406 211.183594 258.34375 211.183594 C 255.242188 211.183594 252.730469 213.695312 252.730469 216.792969"/><path fill="#8AD0B8" d="M 290.550781 226.328125 C 290.550781 229.421875 293.0625 231.933594 296.164062 231.933594 C 299.261719 231.933594 301.773438 229.421875 301.773438 226.328125 C 301.773438 223.230469 299.261719 220.71875 296.164062 220.71875 C 293.0625 220.71875 290.550781 223.230469 290.550781 226.328125"/><path fill="#8AD0B8" d="M 282.390625 217.210938 C 282.390625 220.308594 284.90625 222.816406 288.003906 222.816406 C 291.101562 222.816406 293.617188 220.308594 293.617188 217.210938 C 293.617188 214.113281 291.101562 211.601562 288.003906 211.601562 C 284.90625 211.601562 282.390625 214.113281 282.390625 217.210938"/><path fill="#8AD0B8" d="M 272.378906 209.949219 C 272.378906 213.042969 274.894531 215.554688 277.992188 215.554688 C 281.089844 215.554688 283.601562 213.042969 283.601562 209.949219 C 283.601562 206.851562 281.089844 204.339844 277.992188 204.339844 C 274.894531 204.339844 272.378906 206.851562 272.378906 209.949219"/><path fill="#8AD0B8" d="M 294.332031 213.875 C 294.332031 216.972656 296.84375 219.484375 299.941406 219.484375 C 303.042969 219.484375 305.554688 216.972656 305.554688 213.875 C 305.554688 210.777344 303.042969 208.269531 299.941406 208.269531 C 296.84375 208.269531 294.332031 210.777344 294.332031 213.875"/><path fill="#8AD0B8" d="M 260.296875 206.390625 C 260.296875 209.488281 262.808594 212 265.90625 212 C 269.003906 212 271.515625 209.488281 271.515625 206.390625 C 271.515625 203.296875 269.003906 200.785156 265.90625 200.785156 C 262.808594 200.785156 260.296875 203.296875 260.296875 206.390625"/><path fill="#8AD0B8" d="M 284.46875 204.835938 C 284.46875 207.933594 286.984375 210.441406 290.082031 210.441406 C 293.179688 210.441406 295.691406 207.933594 295.691406 204.835938 C 295.691406 201.738281 293.179688 199.230469 290.082031 199.230469 C 286.984375 199.230469 284.46875 201.738281 284.46875 204.835938"/><path fill="#8AD0B8" d="M 295.691406 199.226562 C 295.691406 202.324219 298.203125 204.832031 301.300781 204.832031 C 304.402344 204.832031 306.914062 202.324219 306.914062 199.226562 C 306.914062 196.128906 304.402344 193.617188 301.300781 193.617188 C 298.203125 193.617188 295.691406 196.128906 295.691406 199.226562"/><path fill="#8AD0B8" d="M 270.355469 197.527344 C 270.355469 200.625 272.867188 203.136719 275.964844 203.136719 C 279.066406 203.136719 281.578125 200.625 281.578125 197.527344 C 281.578125 194.433594 279.066406 191.921875 275.964844 191.921875 C 272.867188 191.921875 270.355469 194.433594 270.355469 197.527344"/><path fill="#8AD0B8" d="M 282.847656 192.34375 C 282.847656 195.4375 285.359375 197.949219 288.460938 197.949219 C 291.558594 197.949219 294.070312 195.4375 294.070312 192.34375 C 294.070312 189.246094 291.558594 186.734375 288.460938 186.734375 C 285.359375 186.734375 282.847656 189.246094 282.847656 192.34375"/><path fill="#8AD0B8" d="M 292.191406 184.042969 C 292.191406 187.140625 294.703125 189.648438 297.800781 189.648438 C 300.902344 189.648438 303.414062 187.140625 303.414062 184.042969 C 303.414062 180.945312 300.902344 178.433594 297.800781 178.433594 C 294.703125 178.433594 292.191406 180.945312 292.191406 184.042969"/><path fill="#8AD0B8" d="M 261.714844 188.359375 C 261.714844 191.457031 264.226562 193.964844 267.324219 193.964844 C 270.425781 193.964844 272.9375 191.457031 272.9375 188.359375 C 272.9375 185.261719 270.425781 182.75 267.324219 182.75 C 264.226562 182.75 261.714844 185.261719 261.714844 188.359375"/><path fill="#8AD0B8" d="M 256.101562 176.425781 C 256.101562 179.523438 258.613281 182.035156 261.710938 182.035156 C 264.8125 182.035156 267.324219 179.523438 267.324219 176.425781 C 267.324219 173.328125 264.8125 170.820312 261.710938 170.820312 C 258.613281 170.820312 256.101562 173.328125 256.101562 176.425781"/><path fill="#8AD0B8" d="M 273.902344 184.042969 C 273.902344 187.140625 276.410156 189.648438 279.511719 189.648438 C 282.609375 189.648438 285.121094 187.140625 285.121094 184.042969 C 285.121094 180.945312 282.609375 178.433594 279.511719 178.433594 C 276.410156 178.433594 273.902344 180.945312 273.902344 184.042969"/><path fill="#8AD0B8" d="M 283.605469 175.351562 C 283.605469 178.449219 286.117188 180.960938 289.214844 180.960938 C 292.3125 180.960938 294.824219 178.449219 294.824219 175.351562 C 294.824219 172.253906 292.3125 169.746094 289.214844 169.746094 C 286.117188 169.746094 283.605469 172.253906 283.605469 175.351562"/><path fill="#8AD0B8" d="M 281.578125 162.832031 C 281.578125 165.925781 284.089844 168.4375 287.1875 168.4375 C 290.289062 168.4375 292.800781 165.925781 292.800781 162.832031 C 292.800781 159.734375 290.289062 157.222656 287.1875 157.222656 C 284.089844 157.222656 281.578125 159.734375 281.578125 162.832031"/><path fill="#8AD0B8" d="M 269.203125 172.828125 C 269.203125 175.925781 271.714844 178.433594 274.816406 178.433594 C 277.914062 178.433594 280.425781 175.925781 280.425781 172.828125 C 280.425781 169.730469 277.914062 167.222656 274.816406 167.222656 C 271.714844 167.222656 269.203125 169.730469 269.203125 172.828125"/><path fill="#8AD0B8" d="M 263.359375 162.203125 C 263.359375 165.296875 265.871094 167.808594 268.972656 167.808594 C 272.070312 167.808594 274.582031 165.296875 274.582031 162.203125 C 274.582031 159.101562 272.070312 156.59375 268.972656 156.59375 C 265.871094 156.59375 263.359375 159.101562 263.359375 162.203125"/><path fill="#8AD0B8" d="M 244.5 207.058594 C 244.5 210.15625 247.011719 212.664062 250.109375 212.664062 C 253.210938 212.664062 255.722656 210.15625 255.722656 207.058594 C 255.722656 203.960938 253.210938 201.449219 250.109375 201.449219 C 247.011719 201.449219 244.5 203.960938 244.5 207.058594"/><path fill="#8AD0B8" d="M 230.484375 200.785156 C 230.484375 203.878906 232.996094 206.390625 236.09375 206.390625 C 239.195312 206.390625 241.707031 203.878906 241.707031 200.785156 C 241.707031 197.6875 239.195312 195.175781 236.09375 195.175781 C 232.996094 195.175781 230.484375 197.6875 230.484375 200.785156"/><path fill="#8AD0B8" d="M 240.273438 193.964844 C 240.273438 197.0625 242.785156 199.570312 245.882812 199.570312 C 248.984375 199.570312 251.496094 197.0625 251.496094 193.964844 C 251.496094 190.867188 248.984375 188.355469 245.882812 188.355469 C 242.785156 188.355469 240.273438 190.867188 240.273438 193.964844"/><path fill="#8AD0B8" d="M 252.136719 196.460938 C 252.136719 199.558594 254.648438 202.070312 257.75 202.070312 C 260.847656 202.070312 263.359375 199.558594 263.359375 196.460938 C 263.359375 193.363281 260.847656 190.851562 257.75 190.851562 C 254.648438 190.851562 252.136719 193.363281 252.136719 196.460938"/><path fill="#8AD0B8" d="M 191.425781 184.1875 C 191.425781 187.285156 193.9375 189.796875 197.039062 189.796875 C 200.136719 189.796875 202.648438 187.285156 202.648438 184.1875 C 202.648438 181.09375 200.136719 178.582031 197.039062 178.582031 C 193.9375 178.582031 191.425781 181.09375 191.425781 184.1875"/><path fill="#8AD0B8" d="M 179.167969 178.582031 C 179.167969 181.679688 181.679688 184.1875 184.777344 184.1875 C 187.878906 184.1875 190.390625 181.679688 190.390625 178.582031 C 190.390625 175.484375 187.878906 172.972656 184.777344 172.972656 C 181.679688 172.972656 179.167969 175.484375 179.167969 178.582031"/><path fill="#8AD0B8" d="M 173.039062 166.628906 C 173.039062 169.722656 175.550781 172.234375 178.648438 172.234375 C 181.746094 172.234375 184.261719 169.722656 184.261719 166.628906 C 184.261719 163.53125 181.746094 161.019531 178.648438 161.019531 C 175.550781 161.019531 173.039062 163.53125 173.039062 166.628906"/><path fill="#8AD0B8" d="M 183.59375 159.414062 C 183.59375 162.511719 186.105469 165.019531 189.203125 165.019531 C 192.300781 165.019531 194.8125 162.511719 194.8125 159.414062 C 194.8125 156.316406 192.300781 153.808594 189.203125 153.808594 C 186.105469 153.808594 183.59375 156.316406 183.59375 159.414062"/><path fill="#8AD0B8" d="M 188.335938 147.550781 C 188.335938 150.648438 190.851562 153.160156 193.949219 153.160156 C 197.046875 153.160156 199.558594 150.648438 199.558594 147.550781 C 199.558594 144.453125 197.046875 141.945312 193.949219 141.945312 C 190.851562 141.945312 188.335938 144.453125 188.335938 147.550781"/><path fill="#8AD0B8" d="M 201.710938 149.332031 C 201.710938 152.425781 204.222656 154.941406 207.324219 154.941406 C 210.421875 154.941406 212.933594 152.425781 212.933594 149.332031 C 212.933594 146.234375 210.421875 143.722656 207.324219 143.722656 C 204.222656 143.722656 201.710938 146.234375 201.710938 149.332031"/><path fill="#8AD0B8" d="M 204.183594 136.980469 C 204.183594 140.074219 206.695312 142.585938 209.792969 142.585938 C 212.894531 142.585938 215.40625 140.074219 215.40625 136.980469 C 215.40625 133.882812 212.894531 131.371094 209.792969 131.371094 C 206.695312 131.371094 204.183594 133.882812 204.183594 136.980469"/><path fill="#8AD0B8" d="M 215.40625 145.773438 C 215.40625 148.871094 217.917969 151.382812 221.015625 151.382812 C 224.113281 151.382812 226.628906 148.871094 226.628906 145.773438 C 226.628906 142.679688 224.113281 140.167969 221.015625 140.167969 C 217.917969 140.167969 215.40625 142.679688 215.40625 145.773438"/><path fill="#8AD0B8" d="M 218.175781 133.820312 C 218.175781 136.917969 220.6875 139.425781 223.785156 139.425781 C 226.882812 139.425781 229.398438 136.917969 229.398438 133.820312 C 229.398438 130.722656 226.882812 128.210938 223.785156 128.210938 C 220.6875 128.210938 218.175781 130.722656 218.175781 133.820312"/><path fill="#8AD0B8" d="M 227.246094 145.035156 C 227.246094 148.128906 229.757812 150.640625 232.855469 150.640625 C 235.957031 150.640625 238.46875 148.128906 238.46875 145.035156 C 238.46875 141.933594 235.957031 139.425781 232.855469 139.425781 C 229.757812 139.425781 227.246094 141.933594 227.246094 145.035156"/><path fill="#8AD0B8" d="M 232.289062 133.820312 C 232.289062 136.917969 234.800781 139.425781 237.902344 139.425781 C 241 139.425781 243.511719 136.917969 243.511719 133.820312 C 243.511719 130.722656 241 128.210938 237.902344 128.210938 C 234.800781 128.210938 232.289062 130.722656 232.289062 133.820312"/><path fill="#8AD0B8" d="M 241.582031 143.304688 C 241.582031 146.402344 244.097656 148.910156 247.195312 148.910156 C 250.292969 148.910156 252.804688 146.402344 252.804688 143.304688 C 252.804688 140.207031 250.292969 137.695312 247.195312 137.695312 C 244.097656 137.695312 241.582031 140.207031 241.582031 143.304688"/><path fill="#8AD0B8" d="M 253.828125 139.425781 C 253.828125 142.523438 256.339844 145.035156 259.441406 145.035156 C 262.539062 145.035156 265.050781 142.523438 265.050781 139.425781 C 265.050781 136.332031 262.539062 133.820312 259.441406 133.820312 C 256.339844 133.820312 253.828125 136.332031 253.828125 139.425781"/><path fill="#8AD0B8" d="M 271.625 152.46875 C 271.625 155.566406 274.136719 158.078125 277.238281 158.078125 C 280.335938 158.078125 282.847656 155.566406 282.847656 152.46875 C 282.847656 149.371094 280.335938 146.863281 277.238281 146.863281 C 274.136719 146.863281 271.625 149.371094 271.625 152.46875"/><path fill="#8AD0B8" d="M 259.441406 150.988281 C 259.441406 154.082031 261.953125 156.59375 265.050781 156.59375 C 268.148438 156.59375 270.660156 154.082031 270.660156 150.988281 C 270.660156 147.890625 268.148438 145.378906 265.050781 145.378906 C 261.953125 145.378906 259.441406 147.890625 259.441406 150.988281"/><path fill="#8AD0B8" d="M 190.488281 171.074219 C 190.488281 174.171875 193 176.683594 196.097656 176.683594 C 199.199219 176.683594 201.710938 174.171875 201.710938 171.074219 C 201.710938 167.976562 199.199219 165.464844 196.097656 165.464844 C 193 165.464844 190.488281 167.976562 190.488281 171.074219"/><path fill="#8AD0B8" d="M 202.652344 176.683594 C 202.652344 179.777344 205.164062 182.289062 208.261719 182.289062 C 211.363281 182.289062 213.871094 179.777344 213.871094 176.683594 C 213.871094 173.585938 211.363281 171.074219 208.261719 171.074219 C 205.164062 171.074219 202.652344 173.585938 202.652344 176.683594"/><path fill="#8AD0B8" d="M 217.234375 185.871094 C 217.234375 188.964844 219.746094 191.476562 222.847656 191.476562 C 225.945312 191.476562 228.457031 188.964844 228.457031 185.871094 C 228.457031 182.773438 225.945312 180.261719 222.847656 180.261719 C 219.746094 180.261719 217.234375 182.773438 217.234375 185.871094"/><path fill="#8AD0B8" d="M 196.101562 210.902344 C 196.101562 214 198.613281 216.511719 201.710938 216.511719 C 204.8125 216.511719 207.324219 214 207.324219 210.902344 C 207.324219 207.808594 204.8125 205.296875 201.710938 205.296875 C 198.613281 205.296875 196.101562 207.808594 196.101562 210.902344"/><path fill="#8AD0B8" d="M 159.742188 213.917969 C 159.742188 217.015625 162.253906 219.523438 165.351562 219.523438 C 168.453125 219.523438 170.960938 217.015625 170.960938 213.917969 C 170.960938 210.820312 168.453125 208.308594 165.351562 208.308594 C 162.253906 208.308594 159.742188 210.820312 159.742188 213.917969"/><path fill="#8AD0B8" d="M 155.414062 274 C 155.414062 277.097656 157.925781 279.609375 161.023438 279.609375 C 164.125 279.609375 166.636719 277.097656 166.636719 274 C 166.636719 270.902344 164.125 268.394531 161.023438 268.394531 C 157.925781 268.394531 155.414062 270.902344 155.414062 274"/><path fill="#8AD0B8" d="M 141.871094 274.59375 C 141.871094 277.691406 144.382812 280.199219 147.480469 280.199219 C 150.582031 280.199219 153.09375 277.691406 153.09375 274.59375 C 153.09375 271.496094 150.582031 268.984375 147.480469 268.984375 C 144.382812 268.984375 141.871094 271.496094 141.871094 274.59375"/><path fill="#8AD0B8" d="M 127.277344 272.421875 C 127.277344 275.515625 129.789062 278.027344 132.886719 278.027344 C 135.984375 278.027344 138.496094 275.515625 138.496094 272.421875 C 138.496094 269.324219 135.984375 266.8125 132.886719 266.8125 C 129.789062 266.8125 127.277344 269.324219 127.277344 272.421875"/><path fill="#8AD0B8" d="M 112.839844 269.0625 C 112.839844 272.160156 115.351562 274.667969 118.453125 274.667969 C 121.550781 274.667969 124.0625 272.160156 124.0625 269.0625 C 124.0625 265.964844 121.550781 263.457031 118.453125 263.457031 C 115.351562 263.457031 112.839844 265.964844 112.839844 269.0625"/><path fill="#8AD0B8" d="M 109.304688 255.375 C 109.304688 258.472656 111.816406 260.984375 114.917969 260.984375 C 118.015625 260.984375 120.527344 258.472656 120.527344 255.375 C 120.527344 252.277344 118.015625 249.769531 114.917969 249.769531 C 111.816406 249.769531 109.304688 252.277344 109.304688 255.375"/><path fill="#8AD0B8" d="M 122.851562 259.328125 C 122.851562 262.425781 125.363281 264.9375 128.464844 264.9375 C 131.5625 264.9375 134.074219 262.425781 134.074219 259.328125 C 134.074219 256.230469 131.5625 253.722656 128.464844 253.722656 C 125.363281 253.722656 122.851562 256.230469 122.851562 259.328125"/><path fill="#8AD0B8" d="M 136.257812 262.113281 C 136.257812 265.210938 138.769531 267.71875 141.871094 267.71875 C 144.96875 267.71875 147.480469 265.210938 147.480469 262.113281 C 147.480469 259.015625 144.96875 256.503906 141.871094 256.503906 C 138.769531 256.503906 136.257812 259.015625 136.257812 262.113281"/><path fill="#8AD0B8" d="M 149.804688 261.566406 C 149.804688 264.664062 152.316406 267.175781 155.414062 267.175781 C 158.515625 267.175781 161.027344 264.664062 161.027344 261.566406 C 161.027344 258.472656 158.515625 255.960938 155.414062 255.960938 C 152.316406 255.960938 149.804688 258.472656 149.804688 261.566406"/><path fill="#8AD0B8" d="M 141.871094 249.769531 C 141.871094 252.867188 144.382812 255.375 147.480469 255.375 C 150.582031 255.375 153.09375 252.867188 153.09375 249.769531 C 153.09375 246.671875 150.582031 244.164062 147.480469 244.164062 C 144.382812 244.164062 141.871094 246.671875 141.871094 249.769531"/><path fill="#8AD0B8" d="M 128.460938 248.324219 C 128.460938 251.421875 130.972656 253.933594 134.074219 253.933594 C 137.171875 253.933594 139.683594 251.421875 139.683594 248.324219 C 139.683594 245.230469 137.171875 242.71875 134.074219 242.71875 C 130.972656 242.71875 128.460938 245.230469 128.460938 248.324219"/><path fill="#8AD0B8" d="M 117.710938 230.539062 C 117.710938 233.636719 120.222656 236.148438 123.324219 236.148438 C 126.421875 236.148438 128.933594 233.636719 128.933594 230.539062 C 128.933594 227.445312 126.421875 224.933594 123.324219 224.933594 C 120.222656 224.933594 117.710938 227.445312 117.710938 230.539062"/><path fill="#8AD0B8" d="M 128.460938 221.945312 C 128.460938 225.039062 130.972656 227.550781 134.074219 227.550781 C 137.171875 227.550781 139.683594 225.039062 139.683594 221.945312 C 139.683594 218.847656 137.171875 216.335938 134.074219 216.335938 C 130.972656 216.335938 128.460938 218.847656 128.460938 221.945312"/><path fill="#8AD0B8" d="M 139.683594 215.277344 C 139.683594 218.375 142.199219 220.886719 145.296875 220.886719 C 148.394531 220.886719 150.90625 218.375 150.90625 215.277344 C 150.90625 212.179688 148.394531 209.667969 145.296875 209.667969 C 142.199219 209.667969 139.683594 212.179688 139.683594 215.277344"/><path fill="#8AD0B8" d="M 140.441406 228.351562 C 140.441406 231.449219 142.953125 233.957031 146.054688 233.957031 C 149.152344 233.957031 151.664062 231.449219 151.664062 228.351562 C 151.664062 225.253906 149.152344 222.742188 146.054688 222.742188 C 142.953125 222.742188 140.441406 225.253906 140.441406 228.351562"/><path fill="#8AD0B8" d="M 129.21875 235.679688 C 129.21875 238.777344 131.734375 241.285156 134.828125 241.285156 C 137.929688 241.285156 140.441406 238.777344 140.441406 235.679688 C 140.441406 232.582031 137.929688 230.070312 134.828125 230.070312 C 131.734375 230.070312 129.21875 232.582031 129.21875 235.679688"/><path fill="#8AD0B8" d="M 97.070312 262.113281 C 97.070312 265.210938 99.582031 267.71875 102.679688 267.71875 C 105.78125 267.71875 108.292969 265.210938 108.292969 262.113281 C 108.292969 259.015625 105.78125 256.503906 102.679688 256.503906 C 99.582031 256.503906 97.070312 259.015625 97.070312 262.113281"/><path fill="#F03838" d="M 162.703125 236.953125 C 162.703125 236.953125 160.703125 228.28125 148.910156 229.613281 C 137.121094 230.949219 139.492188 246.066406 144.90625 250.367188 C 150.320312 254.664062 155.878906 257.480469 156.625 261.40625 C 157.363281 265.335938 151.570312 265.851562 151.570312 265.851562 C 151.570312 265.851562 167.003906 271.632812 177.089844 259.035156 C 187.175781 246.4375 184.503906 236.433594 176.050781 233.246094 C 167.597656 230.058594 162.703125 236.953125 162.703125 236.953125"/><path fill="#F03838" d="M 112.644531 231.808594 C 112.644531 231.808594 118.140625 224.808594 128.25 231.023438 C 138.351562 237.234375 129.777344 249.914062 123.050781 251.507812 C 116.324219 253.101562 110.089844 253.289062 107.75 256.527344 C 105.40625 259.769531 110.429688 262.699219 110.429688 262.699219 C 110.429688 262.699219 94.003906 261.378906 90.230469 245.691406 C 86.457031 230.007812 93.125 222.082031 102.132812 222.789062 C 111.140625 223.492188 112.644531 231.808594 112.644531 231.808594"/><path fill="#F03838" d="M 232.554688 150.777344 C 232.554688 150.777344 227.070312 138.078125 209.417969 143.40625 C 191.761719 148.734375 199.613281 171.1875 209.089844 176.25 C 218.566406 181.3125 227.855469 184.0625 230.089844 189.863281 C 232.320312 195.664062 223.609375 198.070312 223.609375 198.070312 C 223.609375 198.070312 248.816406 202.605469 260.71875 180.527344 C 272.621094 158.457031 265.742188 143.902344 251.929688 141.386719 C 238.113281 138.875 232.554688 150.777344 232.554688 150.777344"/><path fill="#CBC7C3" d="M 92.214844 278.472656 C 92.214844 278.472656 89.992188 277.21875 86.886719 274.804688 C 89.960938 277.234375 92.214844 278.472656 92.214844 278.472656"/><path fill="#453B36" d="M 151.558594 291.996094 C 181.457031 291.992188 216.429688 271.855469 216.429688 271.855469 C 216.429688 271.855469 216.742188 271.921875 217.171875 272.148438 L 217.730469 271.855469 L 214.445312 266.839844 C 214.585938 267.332031 214.664062 267.855469 214.664062 268.394531 C 214.664062 271.492188 212.152344 274 209.050781 274 C 205.953125 274 203.441406 271.492188 203.441406 268.394531 C 203.441406 265.296875 205.953125 262.785156 209.050781 262.785156 C 210.417969 262.785156 211.667969 263.273438 212.640625 264.082031 L 207.324219 255.960938 C 207.324219 255.960938 205.789062 256.652344 203.0625 257.753906 C 203.707031 258.667969 204.085938 259.78125 204.085938 260.984375 C 204.085938 264.082031 201.570312 266.589844 198.472656 266.589844 C 195.578125 266.589844 193.195312 264.398438 192.894531 261.585938 C 192.085938 261.871094 191.253906 262.160156 190.394531 262.453125 C 191.515625 263.476562 192.21875 264.953125 192.21875 266.589844 C 192.21875 269.6875 189.707031 272.199219 186.609375 272.199219 C 183.507812 272.199219 180.996094 269.6875 180.996094 266.589844 C 180.996094 266.183594 181.042969 265.785156 181.125 265.402344 C 179.996094 265.738281 178.84375 266.070312 177.667969 266.398438 C 178.792969 267.425781 179.5 268.902344 179.5 270.542969 C 179.5 273.640625 176.988281 276.152344 173.890625 276.152344 C 170.789062 276.152344 168.277344 273.640625 168.277344 270.542969 C 168.277344 269.914062 168.382812 269.308594 168.574219 268.742188 C 167.25 269.050781 165.910156 269.351562 164.554688 269.640625 C 165.828125 270.667969 166.640625 272.238281 166.640625 274 C 166.640625 277.097656 164.125 279.609375 161.027344 279.609375 C 157.929688 279.609375 155.417969 277.097656 155.417969 274 C 155.417969 272.992188 155.683594 272.046875 156.148438 271.230469 C 154.886719 271.4375 153.621094 271.628906 152.347656 271.804688 C 152.820312 272.628906 153.089844 273.578125 153.089844 274.59375 C 153.089844 277.691406 150.582031 280.199219 147.480469 280.199219 C 144.378906 280.199219 141.871094 277.691406 141.871094 274.59375 C 141.871094 273.988281 141.964844 273.40625 142.140625 272.863281 C 140.917969 272.941406 139.6875 273.003906 138.464844 273.042969 C 138.152344 275.847656 135.777344 278.027344 132.886719 278.027344 C 129.925781 278.027344 127.5 275.734375 127.292969 272.824219 C 125.84375 272.710938 124.40625 272.558594 122.984375 272.367188 C 121.964844 273.765625 120.316406 274.671875 118.453125 274.671875 C 115.765625 274.671875 113.523438 272.785156 112.972656 270.269531 C 110.078125 269.414062 107.40625 268.398438 104.941406 267.246094 C 104.25 267.550781 103.484375 267.71875 102.679688 267.71875 C 99.789062 267.71875 97.410156 265.535156 97.101562 262.726562 C 95.402344 261.527344 93.832031 260.261719 92.382812 258.949219 C 89.707031 258.640625 87.609375 256.449219 87.433594 253.738281 C 86.695312 252.835938 86.003906 251.929688 85.347656 251.011719 C 85.367188 251.199219 85.378906 251.394531 85.378906 251.589844 C 85.378906 254.683594 82.867188 257.195312 79.769531 257.195312 C 76.667969 257.195312 74.15625 254.683594 74.15625 251.589844 C 74.15625 248.492188 76.667969 245.980469 79.769531 245.980469 C 80.808594 245.980469 81.785156 246.265625 82.621094 246.757812 C 81.652344 245.078125 80.800781 243.394531 80.066406 241.75 C 79.152344 243.613281 77.234375 244.894531 75.023438 244.894531 C 71.921875 244.894531 69.410156 242.382812 69.410156 239.285156 C 69.410156 236.191406 71.921875 233.679688 75.023438 233.679688 C 75.816406 233.679688 76.570312 233.84375 77.253906 234.140625 C 75.175781 227.097656 75.023438 221.945312 75.023438 221.945312 L 70.515625 233.074219 C 70.515625 233.074219 66.535156 235.789062 71.28125 252.683594 C 74.257812 263.273438 81.726562 270.71875 86.886719 274.804688 C 89.992188 277.21875 92.21875 278.472656 92.21875 278.472656 C 92.21875 278.472656 94.164062 279.382812 97.382812 280.777344 C 104.484375 283.640625 124.097656 290.660156 148.304688 291.910156 C 149.382812 291.96875 150.464844 291.996094 151.558594 291.996094 M 155.417969 279.609375 C 158.511719 279.609375 161.027344 282.117188 161.027344 285.214844 C 161.027344 288.3125 158.511719 290.824219 155.417969 290.824219 C 152.316406 290.824219 149.804688 288.3125 149.804688 285.214844 C 149.804688 282.117188 152.316406 279.609375 155.417969 279.609375 M 138.5 278.390625 C 141.597656 278.390625 144.109375 280.902344 144.109375 284 C 144.109375 287.097656 141.597656 289.605469 138.5 289.605469 C 135.398438 289.605469 132.886719 287.097656 132.886719 284 C 132.886719 280.902344 135.398438 278.390625 138.5 278.390625 M 169.851562 277.535156 C 172.949219 277.535156 175.464844 280.042969 175.464844 283.140625 C 175.464844 286.238281 172.949219 288.75 169.851562 288.75 C 166.753906 288.75 164.242188 286.238281 164.242188 283.140625 C 164.242188 280.042969 166.753906 277.535156 169.851562 277.535156 M 123.320312 276.101562 C 126.421875 276.101562 128.933594 278.613281 128.933594 281.710938 C 128.933594 284.808594 126.421875 287.316406 123.320312 287.316406 C 120.222656 287.316406 117.710938 284.808594 117.710938 281.710938 C 117.710938 278.613281 120.222656 276.101562 123.320312 276.101562 M 183.59375 273.582031 C 186.691406 273.582031 189.203125 276.09375 189.203125 279.1875 C 189.203125 282.285156 186.691406 284.796875 183.59375 284.796875 C 180.496094 284.796875 177.980469 282.285156 177.980469 279.1875 C 177.980469 276.09375 180.496094 273.582031 183.59375 273.582031 M 109.304688 271.855469 C 112.402344 271.855469 114.917969 274.363281 114.917969 277.460938 C 114.917969 280.558594 112.402344 283.070312 109.304688 283.070312 C 106.207031 283.070312 103.695312 280.558594 103.695312 277.460938 C 103.695312 274.363281 106.207031 271.855469 109.304688 271.855469 M 197.832031 268.394531 C 200.929688 268.394531 203.441406 270.902344 203.441406 274 C 203.441406 277.097656 200.929688 279.609375 197.832031 279.609375 C 194.730469 279.609375 192.21875 277.097656 192.21875 274 C 192.21875 270.902344 194.730469 268.394531 197.832031 268.394531 M 95.859375 267.175781 C 98.957031 267.175781 101.46875 269.6875 101.46875 272.785156 C 101.46875 275.882812 98.957031 278.390625 95.859375 278.390625 C 92.757812 278.390625 90.246094 275.882812 90.246094 272.785156 C 90.246094 269.6875 92.757812 267.175781 95.859375 267.175781 M 85.378906 257.847656 C 88.480469 257.847656 90.988281 260.359375 90.988281 263.457031 C 90.988281 266.554688 88.480469 269.0625 85.378906 269.0625 C 82.277344 269.0625 79.769531 266.554688 79.769531 263.457031 C 79.769531 260.359375 82.277344 257.847656 85.378906 257.847656"/><path fill="#382E2B" d="M 144.15625 294.628906 L 149.5625 293.691406 L 149.5625 294.523438 L 149.5625 293.691406 L 153.046875 294.292969 C 169.75 292.925781 187.253906 287.910156 187.253906 287.910156 L 217.167969 272.148438 C 216.742188 271.921875 216.429688 271.855469 216.429688 271.855469 C 216.429688 271.855469 181.457031 291.992188 151.558594 291.996094 C 150.464844 291.996094 149.382812 291.96875 148.304688 291.910156 C 124.097656 290.660156 104.484375 283.640625 97.382812 280.777344 C 105.480469 284.285156 121.613281 290.863281 134.832031 293.691406 C 137.640625 294.292969 140.804688 294.574219 144.15625 294.628906"/><path fill="#382E2B" d="M 149.5625 294.523438 C 150.71875 294.46875 151.878906 294.390625 153.046875 294.292969 L 149.5625 293.691406 L 149.5625 294.523438"/><path fill="#382E2B" d="M 145.265625 294.636719 C 146.675781 294.636719 148.113281 294.597656 149.5625 294.523438 L 149.5625 293.691406 L 144.160156 294.628906 C 144.527344 294.632812 144.898438 294.636719 145.265625 294.636719"/><path fill="#72A493" d="M 75.019531 244.894531 C 77.234375 244.894531 79.148438 243.613281 80.0625 241.75 C 78.863281 239.082031 77.949219 236.507812 77.253906 234.140625 C 76.566406 233.84375 75.8125 233.679688 75.019531 233.679688 C 71.921875 233.679688 69.410156 236.1875 69.410156 239.285156 C 69.410156 242.382812 71.921875 244.894531 75.019531 244.894531"/><path fill="#72A493" d="M 79.765625 257.195312 C 82.863281 257.195312 85.375 254.683594 85.375 251.589844 C 85.375 251.390625 85.367188 251.199219 85.347656 251.007812 C 84.34375 249.601562 83.4375 248.179688 82.617188 246.757812 C 81.785156 246.265625 80.804688 245.980469 79.765625 245.980469 C 76.667969 245.980469 74.152344 248.492188 74.152344 251.589844 C 74.152344 254.683594 76.667969 257.195312 79.765625 257.195312"/><path fill="#72A493" d="M 92.382812 258.945312 C 90.546875 257.277344 88.902344 255.527344 87.433594 253.738281 C 87.605469 256.449219 89.707031 258.636719 92.382812 258.945312"/><path fill="#72A493" d="M 85.378906 269.0625 C 88.476562 269.0625 90.988281 266.554688 90.988281 263.457031 C 90.988281 260.359375 88.476562 257.847656 85.378906 257.847656 C 82.277344 257.847656 79.769531 260.359375 79.769531 263.457031 C 79.769531 266.554688 82.277344 269.0625 85.378906 269.0625"/><path fill="#72A493" d="M 95.859375 278.390625 C 98.957031 278.390625 101.46875 275.878906 101.46875 272.78125 C 101.46875 269.6875 98.957031 267.175781 95.859375 267.175781 C 92.757812 267.175781 90.246094 269.6875 90.246094 272.78125 C 90.246094 275.878906 92.757812 278.390625 95.859375 278.390625"/><path fill="#72A493" d="M 109.304688 283.070312 C 112.40625 283.070312 114.917969 280.558594 114.917969 277.460938 C 114.917969 274.363281 112.40625 271.851562 109.304688 271.851562 C 106.207031 271.851562 103.695312 274.363281 103.695312 277.460938 C 103.695312 280.558594 106.207031 283.070312 109.304688 283.070312"/><path fill="#72A493" d="M 123.324219 287.316406 C 126.421875 287.316406 128.933594 284.808594 128.933594 281.710938 C 128.933594 278.613281 126.421875 276.101562 123.324219 276.101562 C 120.222656 276.101562 117.710938 278.613281 117.710938 281.710938 C 117.710938 284.808594 120.222656 287.316406 123.324219 287.316406"/><path fill="#72A493" d="M 138.496094 289.605469 C 141.597656 289.605469 144.109375 287.09375 144.109375 284 C 144.109375 280.902344 141.597656 278.390625 138.496094 278.390625 C 135.398438 278.390625 132.886719 280.902344 132.886719 284 C 132.886719 287.09375 135.398438 289.605469 138.496094 289.605469"/><path fill="#72A493" d="M 155.414062 290.824219 C 158.515625 290.824219 161.027344 288.3125 161.027344 285.214844 C 161.027344 282.117188 158.515625 279.609375 155.414062 279.609375 C 152.316406 279.609375 149.804688 282.117188 149.804688 285.214844 C 149.804688 288.3125 152.316406 290.824219 155.414062 290.824219"/><path fill="#72A493" d="M 169.847656 288.746094 C 172.949219 288.746094 175.460938 286.238281 175.460938 283.140625 C 175.460938 280.042969 172.949219 277.535156 169.847656 277.535156 C 166.75 277.535156 164.238281 280.042969 164.238281 283.140625 C 164.238281 286.238281 166.75 288.746094 169.847656 288.746094"/><path fill="#72A493" d="M 183.59375 284.796875 C 186.691406 284.796875 189.203125 282.285156 189.203125 279.191406 C 189.203125 276.09375 186.691406 273.582031 183.59375 273.582031 C 180.492188 273.582031 177.980469 276.09375 177.980469 279.191406 C 177.980469 282.285156 180.492188 284.796875 183.59375 284.796875"/><path fill="#72A493" d="M 197.832031 279.605469 C 200.929688 279.605469 203.441406 277.097656 203.441406 274 C 203.441406 270.902344 200.929688 268.394531 197.832031 268.394531 C 194.730469 268.394531 192.21875 270.902344 192.21875 274 C 192.21875 277.097656 194.730469 279.605469 197.832031 279.605469"/><path fill="#72A493" d="M 209.050781 274 C 212.152344 274 214.664062 271.488281 214.664062 268.394531 C 214.664062 267.855469 214.589844 267.332031 214.445312 266.839844 L 212.640625 264.082031 C 211.667969 263.273438 210.417969 262.789062 209.050781 262.789062 C 205.953125 262.789062 203.441406 265.296875 203.441406 268.394531 C 203.441406 271.488281 205.953125 274 209.050781 274"/><path fill="#72A493" d="M 198.472656 266.589844 C 201.570312 266.589844 204.082031 264.078125 204.082031 260.984375 C 204.082031 259.78125 203.703125 258.667969 203.0625 257.753906 C 200.578125 258.757812 197.105469 260.105469 192.894531 261.585938 C 193.195312 264.398438 195.578125 266.589844 198.472656 266.589844"/><path fill="#72A493" d="M 186.609375 272.199219 C 189.707031 272.199219 192.21875 269.6875 192.21875 266.589844 C 192.21875 264.953125 191.515625 263.476562 190.394531 262.453125 C 187.558594 263.414062 184.449219 264.414062 181.125 265.402344 C 181.039062 265.785156 180.996094 266.183594 180.996094 266.589844 C 180.996094 269.6875 183.507812 272.199219 186.609375 272.199219"/><path fill="#72A493" d="M 173.886719 276.148438 C 176.984375 276.148438 179.5 273.640625 179.5 270.542969 C 179.5 268.902344 178.792969 267.421875 177.667969 266.398438 C 174.757812 267.214844 171.710938 268.003906 168.570312 268.738281 C 168.378906 269.304688 168.277344 269.914062 168.277344 270.542969 C 168.277344 273.640625 170.789062 276.148438 173.886719 276.148438"/><path fill="#72A493" d="M 161.023438 279.609375 C 164.125 279.609375 166.636719 277.097656 166.636719 274 C 166.636719 272.238281 165.824219 270.667969 164.554688 269.640625 C 161.804688 270.226562 158.988281 270.761719 156.148438 271.230469 C 155.679688 272.046875 155.414062 272.992188 155.414062 274 C 155.414062 277.097656 157.925781 279.609375 161.023438 279.609375"/><path fill="#72A493" d="M 147.480469 280.199219 C 150.582031 280.199219 153.09375 277.691406 153.09375 274.59375 C 153.09375 273.578125 152.820312 272.628906 152.351562 271.804688 C 148.964844 272.277344 145.554688 272.640625 142.144531 272.863281 C 141.964844 273.40625 141.871094 273.988281 141.871094 274.59375 C 141.871094 277.691406 144.382812 280.199219 147.480469 280.199219"/><path fill="#72A493" d="M 132.886719 278.027344 C 135.773438 278.027344 138.152344 275.847656 138.464844 273.042969 C 137.21875 273.085938 135.984375 273.109375 134.746094 273.109375 C 132.238281 273.109375 129.746094 273.019531 127.289062 272.824219 C 127.496094 275.730469 129.921875 278.027344 132.886719 278.027344"/><path fill="#72A493" d="M 118.449219 274.667969 C 120.3125 274.667969 121.960938 273.761719 122.984375 272.367188 C 119.882812 271.953125 116.847656 271.355469 113.925781 270.542969 C 113.605469 270.453125 113.285156 270.359375 112.96875 270.269531 C 113.519531 272.785156 115.765625 274.667969 118.449219 274.667969"/><path fill="#72A493" d="M 102.679688 267.71875 C 103.484375 267.71875 104.246094 267.550781 104.9375 267.246094 C 102.058594 265.902344 99.453125 264.378906 97.101562 262.726562 C 97.40625 265.53125 99.789062 267.71875 102.679688 267.71875"/><path fill="#453B36" d="M 258.625 261.777344 C 260.152344 261.777344 261.683594 261.585938 263.023438 261.230469 C 267.507812 260.046875 280.746094 255.894531 286.085938 251.414062 C 291.425781 246.929688 298.398438 236.886719 301.773438 228.699219 C 305.144531 220.511719 307.113281 210.347656 307.21875 204.503906 C 307.324219 198.660156 306.183594 192.496094 306.183594 192.496094 L 301.917969 177.601562 C 301.917969 177.601562 294.652344 161.820312 290.015625 156.851562 C 285.382812 151.886719 277.964844 144.734375 277.964844 144.734375 L 269.5625 141.945312 C 269.5625 141.945312 271.75 143.816406 274.875 147.378906 C 275.59375 147.046875 276.394531 146.859375 277.238281 146.859375 C 280.335938 146.859375 282.847656 149.371094 282.847656 152.46875 C 282.847656 153.824219 282.363281 155.070312 281.5625 156.039062 C 282.152344 156.90625 282.746094 157.8125 283.335938 158.753906 C 284.339844 157.804688 285.695312 157.222656 287.1875 157.222656 C 290.289062 157.222656 292.800781 159.734375 292.800781 162.832031 C 292.800781 165.457031 290.992188 167.660156 288.554688 168.269531 C 288.785156 168.753906 289.015625 169.246094 289.238281 169.746094 C 292.324219 169.757812 294.824219 172.265625 294.824219 175.355469 C 294.824219 177.019531 294.097656 178.515625 292.945312 179.542969 C 293.066406 179.925781 293.179688 180.3125 293.292969 180.703125 C 294.316406 179.324219 295.957031 178.433594 297.800781 178.433594 C 300.902344 178.433594 303.414062 180.945312 303.414062 184.042969 C 303.414062 187.140625 300.902344 189.648438 297.800781 189.648438 C 296.898438 189.648438 296.042969 189.433594 295.285156 189.054688 C 295.429688 189.851562 295.566406 190.660156 295.691406 191.476562 C 295.976562 193.351562 296.128906 195.183594 296.160156 196.976562 C 297.03125 195 299.003906 193.617188 301.300781 193.617188 C 304.402344 193.617188 306.914062 196.128906 306.914062 199.226562 C 306.914062 202.324219 304.402344 204.832031 301.300781 204.832031 C 298.871094 204.832031 296.800781 203.289062 296.023438 201.128906 C 295.933594 202.148438 295.808594 203.152344 295.648438 204.140625 C 295.675781 204.367188 295.691406 204.597656 295.691406 204.832031 C 295.691406 205.882812 295.402344 206.859375 294.902344 207.699219 C 294.328125 209.941406 293.578125 212.085938 292.6875 214.121094 C 293.273438 215.007812 293.617188 216.070312 293.617188 217.210938 C 293.617188 220.308594 291.101562 222.820312 288.003906 222.820312 C 287.894531 222.820312 287.789062 222.816406 287.683594 222.808594 C 287.140625 223.554688 286.582031 224.273438 286.011719 224.96875 C 286.261719 225.605469 286.398438 226.296875 286.398438 227.019531 C 286.398438 230.113281 283.882812 232.625 280.785156 232.625 C 280.039062 232.625 279.328125 232.476562 278.671875 232.214844 C 278.128906 232.644531 277.585938 233.050781 277.046875 233.4375 C 278.144531 234.460938 278.832031 235.921875 278.832031 237.539062 C 278.832031 240.636719 276.320312 243.148438 273.222656 243.148438 C 270.238281 243.148438 267.796875 240.816406 267.621094 237.878906 C 267.242188 237.933594 266.886719 237.960938 266.550781 237.960938 C 265.34375 237.960938 264.441406 237.597656 263.953125 236.847656 C 263.640625 236.367188 263.382812 235.835938 263.164062 235.261719 C 262.96875 235.28125 262.769531 235.292969 262.566406 235.292969 C 259.46875 235.292969 256.957031 232.78125 256.957031 229.683594 C 256.957031 227.039062 258.792969 224.820312 261.257812 224.230469 C 261.117188 223.445312 260.953125 222.648438 260.757812 221.855469 C 260.023438 222.203125 259.207031 222.398438 258.339844 222.398438 C 255.242188 222.398438 252.730469 219.886719 252.730469 216.789062 C 252.730469 214.785156 253.78125 213.027344 255.363281 212.035156 C 254.984375 211.667969 254.582031 211.300781 254.152344 210.945312 C 253.132812 212.003906 251.699219 212.667969 250.109375 212.667969 C 247.011719 212.667969 244.5 210.15625 244.5 207.058594 C 244.5 206.601562 244.554688 206.15625 244.65625 205.730469 C 243.101562 205.117188 241.699219 204.664062 240.4375 204.335938 C 239.40625 205.589844 237.84375 206.390625 236.09375 206.390625 C 234.285156 206.390625 232.675781 205.535156 231.648438 204.203125 C 230.839844 204.515625 230.484375 204.832031 230.484375 204.832031 L 233.65625 206.390625 C 233.65625 206.390625 239.109375 206.46875 244.113281 210.246094 C 249.117188 214.027344 253.070312 219.488281 255.015625 224.585938 C 256.957031 229.683594 257.3125 237.519531 255.679688 242.332031 C 254.050781 247.152344 249.414062 254.597656 250.636719 258.191406 C 251.496094 260.714844 255.039062 261.777344 258.625 261.777344 M 256.957031 249.769531 C 260.054688 249.769531 262.566406 252.277344 262.566406 255.375 C 262.566406 258.472656 260.054688 260.984375 256.957031 260.984375 C 253.859375 260.984375 251.34375 258.472656 251.34375 255.375 C 251.34375 252.277344 253.859375 249.769531 256.957031 249.769531 M 269.5625 246.804688 C 272.660156 246.804688 275.175781 249.3125 275.175781 252.410156 C 275.175781 255.507812 272.660156 258.019531 269.5625 258.019531 C 266.464844 258.019531 263.953125 255.507812 263.953125 252.410156 C 263.953125 249.3125 266.464844 246.804688 269.5625 246.804688 M 281.578125 241.195312 C 284.675781 241.195312 287.1875 243.707031 287.1875 246.804688 C 287.1875 249.898438 284.675781 252.410156 281.578125 252.410156 C 278.476562 252.410156 275.964844 249.898438 275.964844 246.804688 C 275.964844 243.707031 278.476562 241.195312 281.578125 241.195312 M 262 237.09375 C 265.097656 237.09375 267.613281 239.605469 267.613281 242.703125 C 267.613281 245.800781 265.097656 248.308594 262 248.308594 C 258.898438 248.308594 256.390625 245.800781 256.390625 242.703125 C 256.390625 239.605469 258.898438 237.09375 262 237.09375 M 290.078125 231.488281 C 293.179688 231.488281 295.691406 234 295.691406 237.09375 C 295.691406 240.191406 293.179688 242.703125 290.078125 242.703125 C 286.980469 242.703125 284.46875 240.191406 284.46875 237.09375 C 284.46875 234 286.980469 231.488281 290.078125 231.488281 M 296.160156 220.71875 C 299.257812 220.71875 301.773438 223.230469 301.773438 226.324219 C 301.773438 229.421875 299.257812 231.933594 296.160156 231.933594 C 293.0625 231.933594 290.550781 229.421875 290.550781 226.324219 C 290.550781 223.230469 293.0625 220.71875 296.160156 220.71875 M 299.941406 208.269531 C 303.042969 208.269531 305.554688 210.777344 305.554688 213.875 C 305.554688 216.972656 303.042969 219.484375 299.941406 219.484375 C 296.84375 219.484375 294.332031 216.972656 294.332031 213.875 C 294.332031 210.777344 296.84375 208.269531 299.941406 208.269531"/><path fill="#72A493" d="M 256.957031 260.984375 C 260.054688 260.984375 262.570312 258.472656 262.570312 255.375 C 262.570312 252.277344 260.054688 249.769531 256.957031 249.769531 C 253.859375 249.769531 251.347656 252.277344 251.347656 255.375 C 251.347656 258.472656 253.859375 260.984375 256.957031 260.984375"/><path fill="#72A493" d="M 269.5625 258.019531 C 272.664062 258.019531 275.175781 255.507812 275.175781 252.410156 C 275.175781 249.316406 272.664062 246.804688 269.5625 246.804688 C 266.464844 246.804688 263.953125 249.316406 263.953125 252.410156 C 263.953125 255.507812 266.464844 258.019531 269.5625 258.019531"/><path fill="#72A493" d="M 262 248.308594 C 265.097656 248.308594 267.613281 245.800781 267.613281 242.703125 C 267.613281 239.605469 265.097656 237.09375 262 237.09375 C 258.902344 237.09375 256.390625 239.605469 256.390625 242.703125 C 256.390625 245.800781 258.902344 248.308594 262 248.308594"/><path fill="#72A493" d="M 281.578125 252.410156 C 284.675781 252.410156 287.1875 249.902344 287.1875 246.804688 C 287.1875 243.707031 284.675781 241.195312 281.578125 241.195312 C 278.480469 241.195312 275.964844 243.707031 275.964844 246.804688 C 275.964844 249.902344 278.480469 252.410156 281.578125 252.410156"/><path fill="#72A493" d="M 273.222656 243.148438 C 276.320312 243.148438 278.832031 240.636719 278.832031 237.539062 C 278.832031 235.921875 278.144531 234.460938 277.046875 233.4375 C 273.484375 235.980469 270.105469 237.515625 267.621094 237.878906 C 267.796875 240.816406 270.234375 243.148438 273.222656 243.148438"/><path fill="#72A493" d="M 262.566406 235.292969 C 262.769531 235.292969 262.96875 235.28125 263.164062 235.261719 C 262.074219 232.378906 262 228.402344 261.261719 224.230469 C 258.792969 224.820312 256.957031 227.039062 256.957031 229.683594 C 256.957031 232.78125 259.46875 235.292969 262.566406 235.292969"/><path fill="#72A493" d="M 290.078125 242.703125 C 293.179688 242.703125 295.691406 240.191406 295.691406 237.09375 C 295.691406 234 293.179688 231.488281 290.078125 231.488281 C 286.980469 231.488281 284.46875 234 284.46875 237.09375 C 284.46875 240.191406 286.980469 242.703125 290.078125 242.703125"/><path fill="#72A493" d="M 280.785156 232.625 C 283.882812 232.625 286.398438 230.113281 286.398438 227.019531 C 286.398438 226.296875 286.261719 225.605469 286.011719 224.972656 C 283.683594 227.816406 281.160156 230.25 278.671875 232.214844 C 279.328125 232.480469 280.039062 232.625 280.785156 232.625"/><path fill="#72A493" d="M 258.339844 222.398438 C 259.207031 222.398438 260.023438 222.203125 260.757812 221.851562 C 259.902344 218.441406 258.40625 215.011719 255.363281 212.035156 C 253.78125 213.027344 252.730469 214.785156 252.730469 216.789062 C 252.730469 219.886719 255.242188 222.398438 258.339844 222.398438"/><path fill="#72A493" d="M 296.164062 231.933594 C 299.261719 231.933594 301.773438 229.421875 301.773438 226.328125 C 301.773438 223.230469 299.261719 220.71875 296.164062 220.71875 C 293.0625 220.71875 290.550781 223.230469 290.550781 226.328125 C 290.550781 229.421875 293.0625 231.933594 296.164062 231.933594"/><path fill="#72A493" d="M 288.003906 222.820312 C 291.105469 222.820312 293.617188 220.308594 293.617188 217.210938 C 293.617188 216.070312 293.273438 215.007812 292.6875 214.125 C 291.304688 217.289062 289.585938 220.195312 287.683594 222.808594 C 287.789062 222.816406 287.894531 222.820312 288.003906 222.820312"/><path fill="#72A493" d="M 299.941406 219.484375 C 303.042969 219.484375 305.554688 216.972656 305.554688 213.875 C 305.554688 210.777344 303.042969 208.269531 299.941406 208.269531 C 296.84375 208.269531 294.332031 210.777344 294.332031 213.875 C 294.332031 216.972656 296.84375 219.484375 299.941406 219.484375"/><path fill="#72A493" d="M 294.902344 207.699219 C 295.402344 206.859375 295.691406 205.882812 295.691406 204.835938 C 295.691406 204.601562 295.675781 204.367188 295.648438 204.140625 C 295.453125 205.351562 295.203125 206.539062 294.902344 207.699219"/><path fill="#72A493" d="M 301.300781 204.832031 C 304.402344 204.832031 306.914062 202.324219 306.914062 199.226562 C 306.914062 196.128906 304.402344 193.617188 301.300781 193.617188 C 299.003906 193.617188 297.027344 195 296.160156 196.976562 C 296.1875 198.386719 296.140625 199.769531 296.023438 201.128906 C 296.800781 203.289062 298.871094 204.832031 301.300781 204.832031"/><path fill="#72A493" d="M 297.800781 189.648438 C 300.902344 189.648438 303.414062 187.140625 303.414062 184.042969 C 303.414062 180.945312 300.902344 178.433594 297.800781 178.433594 C 295.957031 178.433594 294.316406 179.324219 293.292969 180.703125 C 294.078125 183.363281 294.75 186.152344 295.285156 189.054688 C 296.042969 189.433594 296.898438 189.648438 297.800781 189.648438"/><path fill="#72A493" d="M 292.945312 179.542969 C 294.101562 178.515625 294.824219 177.019531 294.824219 175.351562 C 294.824219 172.265625 292.328125 169.761719 289.238281 169.746094 C 290.605469 172.789062 291.867188 176.058594 292.945312 179.542969"/><path fill="#72A493" d="M 288.558594 168.269531 C 290.996094 167.660156 292.800781 165.457031 292.800781 162.832031 C 292.800781 159.734375 290.289062 157.222656 287.1875 157.222656 C 285.695312 157.222656 284.339844 157.804688 283.335938 158.753906 C 285.125 161.59375 286.90625 164.769531 288.558594 168.269531"/><path fill="#72A493" d="M 250.109375 212.667969 C 251.699219 212.667969 253.132812 212.007812 254.152344 210.945312 C 253.003906 209.992188 251.667969 209.089844 250.109375 208.269531 C 248.117188 207.214844 246.304688 206.382812 244.65625 205.730469 C 244.554688 206.15625 244.5 206.601562 244.5 207.058594 C 244.5 210.15625 247.011719 212.667969 250.109375 212.667969"/><path fill="#72A493" d="M 236.09375 206.390625 C 237.84375 206.390625 239.40625 205.589844 240.4375 204.335938 C 238.367188 203.804688 236.671875 203.613281 235.304688 203.613281 C 233.613281 203.613281 232.421875 203.90625 231.648438 204.203125 C 232.675781 205.535156 234.285156 206.390625 236.09375 206.390625"/><path fill="#72A493" d="M 281.5625 156.042969 C 282.363281 155.070312 282.847656 153.824219 282.847656 152.46875 C 282.847656 149.371094 280.335938 146.863281 277.238281 146.863281 C 276.394531 146.863281 275.59375 147.046875 274.875 147.382812 C 276.835938 149.617188 279.164062 152.515625 281.5625 156.042969"/></svg>