<svg xmlns="http://www.w3.org/2000/svg" xmlns:xlink="http://www.w3.org/1999/xlink" width="6912" zoomAndPan="magnify" viewBox="0 0 5184 2592.000001" height="3456" preserveAspectRatio="xMidYMid meet" version="1.0"><defs><g><g id="id1"/></g><clipPath id="id2"><path d="M 1 0 L 5183 0 L 5183 2591 L 1 2591 Z M 1 0 " clip-rule="nonzero"/></clipPath></defs><g clip-path="url(#id2)"><path fill="rgb(100%, 100%, 100%)" d="M 1 0 L 5183 0 L 5183 2598.496094 L 1 2598.496094 Z M 1 0 " fill-opacity="1" fill-rule="nonzero"/></g><path fill="rgb(100%, 100%, 100%)" d="M 1 0 L 5183 0 L 5183 2591 L 1 2591 Z M 1 0 " fill-opacity="1" fill-rule="nonzero"/><path fill="rgb(12.939453%, 16.859436%, 35.289001%)" d="M 1 0 L 5183 0 L 5183 2591 L 1 2591 Z M 1 0 " fill-opacity="1" fill-rule="nonzero"/><path stroke-linecap="round" transform="matrix(-0.0169489, -18.744137, 18.742761, -0.0169477, 260.09806, 2331.898719)" fill="none" stroke-linejoin="miter" d="M 4.000016 0.0000525896 L 106.592093 0.0000815355 " stroke="rgb(97.648621%, 98.81897%, 100%)" stroke-width="1" stroke-opacity="1" stroke-miterlimit="4"/><path stroke-linecap="butt" transform="matrix(-0.0169489, -18.744137, 18.742761, -0.0169477, 260.09806, 2331.898719)" fill-opacity="1" fill="rgb(97.648621%, 98.81897%, 100%)" fill-rule="nonzero" stroke-linejoin="round" d="M 0.500069 -1.49994 L 3.499965 -1.499937 L 3.499962 1.499971 L 0.500066 1.499968 Z M 0.500069 -1.49994 " stroke="rgb(97.648621%, 98.81897%, 100%)" stroke-width="1" stroke-opacity="1" stroke-miterlimit="4"/><path stroke-linecap="butt" transform="matrix(-0.0169489, -18.744137, 18.742761, -0.0169477, 258.223666, 258.946232)" fill-opacity="1" fill="rgb(97.648621%, 98.81897%, 100%)" fill-rule="nonzero" stroke-linejoin="round" d="M -3.499898 -1.500047 L -0.500001 -1.500043 L -0.500005 1.500073 L -3.499901 1.50007 Z M -3.499898 -1.500047 " stroke="rgb(97.648621%, 98.81897%, 100%)" stroke-width="1" stroke-opacity="1" stroke-miterlimit="4"/><path stroke-linecap="round" transform="matrix(18.743376, 0, 0, 18.742768, 221.864394, 2293.598577)" fill="none" stroke-linejoin="miter" d="M 4.000104 -0.0000491409 L 246.871948 -0.0000491409 " stroke="rgb(97.648621%, 98.81897%, 100%)" stroke-width="1" stroke-opacity="1" stroke-miterlimit="4"/><path stroke-linecap="butt" transform="matrix(18.743376, 0, 0, 18.742768, 221.864394, 2293.598577)" fill-opacity="1" fill="rgb(97.648621%, 98.81897%, 100%)" fill-rule="nonzero" stroke-linejoin="round" d="M 0.499909 -1.500003 L 3.499927 -1.500003 L 3.499927 1.499904 L 0.499909 1.499904 Z M 0.499909 -1.500003 " stroke="rgb(97.648621%, 98.81897%, 100%)" stroke-width="1" stroke-opacity="1" stroke-miterlimit="4"/><path stroke-linecap="butt" transform="matrix(18.743376, 0, 0, 18.742768, 4924.052484, 2293.598577)" fill-opacity="1" fill="rgb(97.648621%, 98.81897%, 100%)" fill-rule="nonzero" stroke-linejoin="round" d="M -3.500077 -1.500003 L -0.500059 -1.500003 L -0.500059 1.499904 L -3.500077 1.499904 Z M -3.500077 -1.500003 " stroke="rgb(97.648621%, 98.81897%, 100%)" stroke-width="1" stroke-opacity="1" stroke-miterlimit="4"/><path stroke-linecap="round" transform="matrix(18.743376, 0, 0, 18.742768, 221.864394, 295.648058)" fill="none" stroke-linejoin="miter" d="M 4.000104 0.0000202457 L 246.871948 0.0000202457 " stroke="rgb(97.648621%, 98.81897%, 100%)" stroke-width="1" stroke-opacity="1" stroke-miterlimit="4"/><path stroke-linecap="butt" transform="matrix(18.743376, 0, 0, 18.742768, 221.864394, 295.648058)" fill-opacity="1" fill="rgb(97.648621%, 98.81897%, 100%)" fill-rule="nonzero" stroke-linejoin="round" d="M 0.499909 -1.499933 L 3.499927 -1.499933 L 3.499927 1.499974 L 0.499909 1.499974 Z M 0.499909 -1.499933 " stroke="rgb(97.648621%, 98.81897%, 100%)" stroke-width="1" stroke-opacity="1" stroke-miterlimit="4"/><path stroke-linecap="butt" transform="matrix(18.743376, 0, 0, 18.742768, 4924.052484, 295.648058)" fill-opacity="1" fill="rgb(97.648621%, 98.81897%, 100%)" fill-rule="nonzero" stroke-linejoin="round" d="M -3.500077 -1.499933 L -0.500059 -1.499933 L -0.500059 1.499974 L -3.500077 1.499974 Z M -3.500077 -1.499933 " stroke="rgb(97.648621%, 98.81897%, 100%)" stroke-width="1" stroke-opacity="1" stroke-miterlimit="4"/><path stroke-linecap="round" transform="matrix(-0.0169489, -18.744137, 18.742761, -0.0169477, 4885.812919, 2331.90714)" fill="none" stroke-linejoin="miter" d="M 4.000048 0.0000518395 L 106.592126 0.0000807854 " stroke="rgb(97.648621%, 98.81897%, 100%)" stroke-width="1" stroke-opacity="1" stroke-miterlimit="4"/><path stroke-linecap="butt" transform="matrix(-0.0169489, -18.744137, 18.742761, -0.0169477, 4885.812919, 2331.90714)" fill-opacity="1" fill="rgb(97.648621%, 98.81897%, 100%)" fill-rule="nonzero" stroke-linejoin="round" d="M 0.500101 -1.499941 L 3.499998 -1.499938 L 3.499994 1.499971 L 0.500098 1.499967 Z M 0.500101 -1.499941 " stroke="rgb(97.648621%, 98.81897%, 100%)" stroke-width="1" stroke-opacity="1" stroke-miterlimit="4"/><path stroke-linecap="butt" transform="matrix(-0.0169489, -18.744137, 18.742761, -0.0169477, 4883.938762, 258.954754)" fill-opacity="1" fill="rgb(97.648621%, 98.81897%, 100%)" fill-rule="nonzero" stroke-linejoin="round" d="M -3.500068 -1.50006 L -0.499964 -1.500057 L -0.499967 1.50006 L -3.500072 1.500056 Z M -3.500068 -1.50006 " stroke="rgb(97.648621%, 98.81897%, 100%)" stroke-width="1" stroke-opacity="1" stroke-miterlimit="4"/><g fill="rgb(100%, 100%, 100%)" fill-opacity="1"><g transform="translate(300.892602, 259.760634)"><g><path d="M 263.453125 -13.34375 L 263.171875 0 L 172.890625 0 L 171.1875 -9.078125 C 176.675781 -12.679688 184.71875 -16.5625 195.3125 -20.71875 L 194.46875 -97.09375 L 198.4375 -145.640625 L 145.921875 -4.546875 L 113.265625 1.984375 L 60.46875 -144.21875 L 65.015625 -97.09375 L 63.59375 -18.171875 L 87.4375 -13.34375 L 87.15625 0 L 8.796875 0 L 7.09375 -9.078125 C 13.34375 -12.867188 21.765625 -16.941406 32.359375 -21.296875 L 36.34375 -166.359375 L 13.0625 -171.1875 L 13.34375 -184.53125 L 88.296875 -184.53125 L 88 -184.25 L 138.25 -44.28125 L 189.640625 -184.53125 L 255.78125 -184.53125 L 257.484375 -175.4375 C 251.429688 -171.65625 243.671875 -167.875 234.203125 -164.09375 L 236.765625 -18.734375 Z M 263.453125 -13.34375 "/></g></g></g><g fill="rgb(100%, 100%, 100%)" fill-opacity="1"><g transform="translate(571.718855, 259.760634)"><g><path d="M 115.828125 -67.5625 L 43.4375 -68.421875 C 44.195312 -54.410156 48.550781 -43.523438 56.5 -35.765625 C 64.445312 -28.003906 74.570312 -24.125 86.875 -24.125 C 97.09375 -24.125 109.203125 -27.53125 123.203125 -34.34375 L 129.171875 -19.296875 L 84.59375 3.6875 L 75.515625 4.265625 C 54.691406 4.265625 37.5625 -2.3125 24.125 -15.46875 C 10.6875 -28.625 3.96875 -45.328125 3.96875 -65.578125 C 3.96875 -86.773438 10.78125 -104.613281 24.40625 -119.09375 C 38.039062 -133.570312 54.601562 -140.8125 74.09375 -140.8125 C 91.125 -140.8125 105.082031 -135.554688 115.96875 -125.046875 C 126.851562 -114.546875 132.296875 -100.875 132.296875 -84.03125 Z M 64.15625 -119.234375 C 54.3125 -113.554688 47.972656 -103.144531 45.140625 -88 L 94.25 -90.5625 C 92.925781 -98.695312 89.472656 -105.507812 83.890625 -111 C 78.304688 -116.488281 71.726562 -119.234375 64.15625 -119.234375 Z M 64.15625 -119.234375 "/></g></g></g><g fill="rgb(100%, 100%, 100%)" fill-opacity="1"><g transform="translate(709.119202, 259.760634)"><g><path d="M 151.875 -13.625 L 117.25 4.546875 C 112.707031 4.359375 107.972656 2.328125 103.046875 -1.546875 C 98.128906 -5.429688 94.25 -10.210938 91.40625 -15.890625 L 60.46875 3.6875 L 51.671875 4.265625 C 39.742188 4.265625 29.898438 0.765625 22.140625 -6.234375 C 14.378906 -13.242188 10.5 -21.671875 10.5 -31.515625 C 10.5 -45.140625 17.878906 -55.925781 32.640625 -63.875 L 86.875 -65.296875 L 86.875 -90.5625 C 86.875 -105.695312 82.425781 -115.347656 73.53125 -119.515625 C 64.820312 -118.953125 57.722656 -117.722656 52.234375 -115.828125 L 47.125 -85.171875 L 23.28125 -84.3125 C 19.113281 -94.71875 17.03125 -106.171875 17.03125 -118.671875 L 17.3125 -124.34375 C 27.726562 -128.882812 40.222656 -132.90625 54.796875 -136.40625 C 69.367188 -139.90625 80.4375 -141.65625 88 -141.65625 C 95.007812 -141.65625 101.875 -139.765625 108.59375 -135.984375 C 115.3125 -132.203125 120.75 -127.28125 124.90625 -121.21875 C 126.988281 -117.625 128.125 -110.429688 128.3125 -99.640625 L 128.3125 -31.515625 C 128.3125 -26.972656 130.679688 -24.703125 135.421875 -24.703125 L 149.328125 -26.40625 Z M 57.625 -21.015625 C 65.195312 -21.203125 74.945312 -23.566406 86.875 -28.109375 L 86.875 -48.546875 L 79.765625 -48.828125 C 61.035156 -48.828125 51.671875 -43.71875 51.671875 -33.5 C 51.671875 -28.382812 53.65625 -24.222656 57.625 -21.015625 Z M 57.625 -21.015625 "/></g></g></g><g fill="rgb(100%, 100%, 100%)" fill-opacity="1"><g transform="translate(863.552655, 259.760634)"><g><path d="M 74.65625 -27.53125 C 79.957031 -27.53125 87.910156 -28.765625 98.515625 -31.234375 L 101.640625 -17.3125 L 57.90625 4.546875 C 49.769531 4.921875 42.007812 2.175781 34.625 -3.6875 C 27.25 -9.550781 23.46875 -16.175781 23.28125 -23.5625 L 23.28125 -105.609375 L 3.40625 -105.328125 L 2.265625 -120.078125 C 9.460938 -125.191406 17.128906 -129.738281 25.265625 -133.71875 L 39.453125 -170.625 L 58.765625 -170.625 L 63.59375 -133.71875 L 102.484375 -133.71875 L 103.046875 -121.5 L 89.140625 -105.046875 L 64.4375 -105.046875 L 64.4375 -40.59375 C 64.4375 -35.675781 65.191406 -32.269531 66.703125 -30.375 C 68.222656 -28.476562 70.875 -27.53125 74.65625 -27.53125 Z M 74.65625 -27.53125 "/></g></g></g></svg>